/* XPM */
static const char * about_xpm[] = {
"16 16 32 1",
" 	c None",
".	c #69BAFE",
"+	c #275377",
"@	c #8C9398",
"#	c #5FAFF1",
"$	c #76B7EC",
"%	c #ABD6FA",
"&	c #5CA1DC",
"*	c #A1C9EB",
"=	c #66AAE3",
"-	c #579ED9",
";	c #B5D9F7",
">	c #C9E6FF",
",	c #69ADE5",
"'	c #6D8293",
")	c #95CDFC",
"!	c #2D5C84",
"~	c #46627A",
"{	c #1A3C59",
"]	c #75C0FF",
"^	c #61A7E0",
"/	c #FDFDFD",
"(	c #6FB2E9",
"_	c #5FA5DE",
":	c #A8CFF0",
"<	c #D8EDFE",
"[	c #5C768B",
"}	c #3C4F60",
"|	c #6CAFE7",
"1	c #539AD4",
"2	c #425667",
"3	c #FFFFFF",
"    3333333     ",
"   3~@@@''~3    ",
"  3[<>>%)))!3   ",
" 3[<$$$$((,]!3  ",
"32<$(:333:==]{3 ",
"32;$|3:,=3^=]23 ",
"32;(|:,==3^^.23 ",
"32;|,,=33*&_.{3 ",
"32;===*3*&&_.{3 ",
"32%^=^_&&&-&.{3 ",
"32)-^_*3*--1.{3 ",
" 3}$-111111.+3  ",
"  3}$.####.+3/  ",
"   3}!!++!{3/   ",
"    3333333     ",
"                "};
