/* XPM */
static const char * attach_xpm[] = {
"16 16 103 2",
"  	c None",
". 	c #BABABA",
"+ 	c #B8B8B8",
"@ 	c #B7B7B7",
"# 	c #B6B6B6",
"$ 	c #B4B4B4",
"% 	c #B3B3B3",
"& 	c #BBBBBB",
"* 	c #D0D0D0",
"= 	c #E8E8E8",
"- 	c #F3F3F3",
"; 	c #FDFDFD",
"> 	c #FCFCFC",
", 	c #EDEDED",
"' 	c #E0E0E0",
") 	c #C2C2C2",
"! 	c #ADADAD",
"~ 	c #E1E1E1",
"{ 	c #FEFEFE",
"] 	c #FFFFFF",
"^ 	c #FBFBFB",
"/ 	c #CFCFCF",
"( 	c #A9A9A9",
"_ 	c #B9B9B9",
": 	c #F8F8F8",
"< 	c #EAEAEA",
"[ 	c #A7A7A7",
"} 	c #F7F7F7",
"| 	c #E7E7E7",
"1 	c #EFEFEF",
"2 	c #F6F6F6",
"3 	c #FAFAFA",
"4 	c #F0F0F0",
"5 	c #DEDEDE",
"6 	c #C3C3C3",
"7 	c #E6E6E6",
"8 	c #A5A5A5",
"9 	c #B5B5B5",
"0 	c #EBEBEB",
"a 	c #D6D6D6",
"b 	c #D5D5D5",
"c 	c #D1D1D1",
"d 	c #BCBCBC",
"e 	c #C0C0C0",
"f 	c #E5E5E5",
"g 	c #A3A3A3",
"h 	c #F5F5F5",
"i 	c #EEEEEE",
"j 	c #E2E2E2",
"k 	c #CDCDCD",
"l 	c #E3E3E3",
"m 	c #A0A0A0",
"n 	c #B2B2B2",
"o 	c #F4F4F4",
"p 	c #DDDDDD",
"q 	c #C9C9C9",
"r 	c #BDBDBD",
"s 	c #BFBFBF",
"t 	c #9E9E9E",
"u 	c #B0B0B0",
"v 	c #A8A8A8",
"w 	c #8B8B8B",
"x 	c #878787",
"y 	c #B1B1B1",
"z 	c #848484",
"A 	c #868686",
"B 	c #AEAEAE",
"C 	c #919191",
"D 	c #C1C1C1",
"E 	c #898989",
"F 	c #888888",
"G 	c #D8D8D8",
"H 	c #C4C4C4",
"I 	c #4C4C4C",
"J 	c #ACACAC",
"K 	c #797979",
"L 	c #CED3D3",
"M 	c #7B7B7B",
"N 	c #4D4D4D",
"O 	c #656565",
"P 	c #929292",
"Q 	c #676767",
"R 	c #737373",
"S 	c #818181",
"T 	c #464646",
"U 	c #CECECE",
"V 	c #454545",
"W 	c #828282",
"X 	c #727272",
"Y 	c #6D6D6D",
"Z 	c #7E7E7E",
"` 	c #515151",
" .	c #424242",
"..	c #565656",
"+.	c #8E8E8E",
"@.	c #979797",
"#.	c #717171",
"$.	c #787878",
"%.	c #AAAAAA",
"&.	c #8D8D8D",
"*.	c #4A4A4A",
"=.	c #646464",
"-.	c #6B6B6B",
"                                ",
"          . + @ # $ %           ",
"      & * = - ; > , ' ) !       ",
"    . ~ { ] ] ] ] ] ] ^ / (     ",
"    _ : { ] ] ] ] ] ] ^ < [     ",
"    @ } | 1 2 ^ 3 4 5 6 7 8     ",
"    9 2 0 5 a b c 6 d e f g     ",
"    $ h i 7 j 7 ~ k ) ) l m     ",
"    n o < ~ p l 5 q r s j t     ",
"    u - ' v w t x y y z t A     ",
"    B , C C = p D E F G p H C I ",
"    J # K L M N O P K O N Q H R ",
"    ( S A L k T r U ) ! V F H W ",
"      X Y L Z V T ` ` T  ...H Q ",
"        ..+.( B @.#.$.@.B %.&.N ",
"          *.=.-.-.    -.-.=.*.  "};
