/* XPM */
static const char * charset_xpm[] = {
"16 16 128 2",
"  	c None",
". 	c #B1D6F9",
"+ 	c #AED5FA",
"@ 	c #B5DAFD",
"# 	c #526380",
"$ 	c #7496B3",
"% 	c #DE6164",
"& 	c #F6F9FA",
"* 	c #83AAC5",
"= 	c #D26E77",
"- 	c #799DB9",
"; 	c #BADCFD",
"> 	c #8CB3CC",
", 	c #EDF6FE",
"' 	c #ECF1F7",
") 	c #C6E3FE",
"! 	c #96BCD3",
"~ 	c #BEDEFD",
"{ 	c #9FC4D8",
"] 	c #EBF2F9",
"^ 	c #A8CBDE",
"/ 	c #F1F4F9",
"( 	c #EAF1F7",
"_ 	c #E5EDF6",
": 	c #E5ECF3",
"< 	c #C9E4FE",
"[ 	c #C8E3FE",
"} 	c #C0DFFD",
"| 	c #5B7A9E",
"1 	c #9FCFFB",
"2 	c #E24B48",
"3 	c #F4F7FB",
"4 	c #F3F6F9",
"5 	c #F2F5F8",
"6 	c #596E8C",
"7 	c #DEE7EF",
"8 	c #BDDDFD",
"9 	c #AED3E5",
"0 	c #293143",
"a 	c #4C5971",
"b 	c #495469",
"c 	c #E6423D",
"d 	c #E54D4B",
"e 	c #4E5E79",
"f 	c #3D4455",
"g 	c #424B5D",
"h 	c #A9D3FB",
"i 	c #EA3932",
"j 	c #FEFEFE",
"k 	c #ABD4FB",
"l 	c #CAE5FE",
"m 	c #C2E0FD",
"n 	c #A4D1FB",
"o 	c #C4E1FD",
"p 	c #C6E2FD",
"q 	c #7A8FAB",
"r 	c #E3EAF1",
"s 	c #E4EFF5",
"t 	c #D38A97",
"u 	c #A6D0FA",
"v 	c #DB787E",
"w 	c #8EC1F1",
"x 	c #ABD0F5",
"y 	c #E8EFF5",
"z 	c #9DC5EF",
"A 	c #94C1EF",
"B 	c #51617E",
"C 	c #7DA1BC",
"D 	c #414857",
"E 	c #E1E9F0",
"F 	c #E3ECF7",
"G 	c #E4EBF5",
"H 	c #A0CAF3",
"I 	c #BCC1DD",
"J 	c #454F61",
"K 	c #B4D1F1",
"L 	c #B8DAFD",
"M 	c #CCB6CA",
"N 	c #BCD9F8",
"O 	c #BE8FA3",
"P 	c #CC6B76",
"Q 	c #C5D6F1",
"R 	c #7CA3C0",
"S 	c #97BDE7",
"T 	c #50698C",
"U 	c #B0D2E3",
"V 	c #E4EAF8",
"W 	c #B0D7FC",
"X 	c #DC5D60",
"Y 	c #CBCDE4",
"Z 	c #8ABDEF",
"` 	c #556885",
" .	c #D5DBE4",
"..	c #B2D8FC",
"+.	c #EEF0F2",
"@.	c #ADC2E3",
"#.	c #BCBCD6",
"$.	c #ACC7E8",
"%.	c #83B3E3",
"&.	c #CBCCD1",
"*.	c #F1F4FB",
"=.	c #CA8F9F",
"-.	c #A2D0FB",
";.	c #92C8FB",
">.	c #96CAFB",
",.	c #97CCFF",
"'.	c #CD9FB0",
").	c #B8C9E7",
"!.	c #E7EFF7",
"~.	c #D296A4",
"{.	c #59606E",
"].	c #6787A7",
"^.	c #6F8EAF",
"/.	c #D1727D",
"(.	c #EFF1F4",
"_.	c #E25757",
":.	c #AFD0E2",
"<.	c #D7E7F0",
"[.	c #CCAABD",
"}.	c #A7D2FB",
"|.	c #9BCDFB",
"1.	c #A9CAEC",
"2.	c #ADC8E9",
"3.	c #404757",
"4.	c #C29FB2",
"5.	c #455063",
"6.	c #D3E7F0",
"7.	c #FFFFFF",
"j 7.7.7.7.7.7.7.7.7.7.7.7.      ",
"7.6.9 :.^ { ! > * C - $ ].7.    ",
"7.9 <.s ( !.] ' _ _ _ F w | 7.  ",
"7.U y [ l < p o } } ~ , Z %.6 7.",
"7.^ 3 l < [ Y M } 8 ; , , 4 ` 7.",
"7.{ & < ) ) v % N ; L @ ..5 B 7.",
"7.! 3 p p Q d i #.@ @ W + 5 e 7.",
"7.> *.o m ~.'.2 = . W k h 5 a 7.",
"7.* / m } _.).=.c @.h }.n G b 7.",
"7.R ' } [.d X % c O u -.1 V J 7.",
"7.- ' 8 % I 2.1.= 2 H 1 |.E g 7.",
"7.$ ' t i 4.+ k /.i P ,.>.7 3.7.",
"7.^.& ; K $.x h n z S A ;.(.f 7.",
"7.|  .4 ( : : : r E E 7 +.&.0 7.",
"7.q T 6 ` # e a b 5.g D f 0 {.7.",
"j 7.7.7.7.7.7.7.7.7.7.7.7.7.7.j "};
