/* XPM */
static const char * composer_xpm[] = {
"16 16 126 2",
"  	c None",
". 	c #5F93CE",
"+ 	c #5F93CD",
"@ 	c #5F92CD",
"# 	c #5F90CC",
"$ 	c #6192CD",
"% 	c #6393CD",
"& 	c #6191CB",
"* 	c #5F8ECB",
"= 	c #6492CA",
"- 	c #8BAED8",
"; 	c #8BACD7",
"> 	c #FFFFFF",
", 	c #89AAD6",
"' 	c #9CC4ED",
") 	c #9BC4ED",
"! 	c #618CC6",
"~ 	c #5F91CD",
"{ 	c #C1DAF4",
"] 	c #C2DBF4",
"^ 	c #5884C1",
"/ 	c #5E90CC",
"( 	c #B1BDB0",
"_ 	c #D8A558",
": 	c #DBB185",
"< 	c #D09D46",
"[ 	c #5D8ECB",
"} 	c #F5E6B1",
"| 	c #E7BE77",
"1 	c #F0D2B4",
"2 	c #FFF3E5",
"3 	c #EFD2AC",
"4 	c #C78C48",
"5 	c #5C8CCA",
"6 	c #547FBC",
"7 	c #4C7DBA",
"8 	c #4A7CBA",
"9 	c #DEE5F0",
"0 	c #DFD5AB",
"a 	c #EED581",
"b 	c #F9E3B2",
"c 	c #E7C08B",
"d 	c #F6D3AE",
"e 	c #FCE0C4",
"f 	c #D39F66",
"g 	c #5B8AC8",
"h 	c #4076B7",
"i 	c #83A6D1",
"j 	c #3873B6",
"k 	c #E9DFBB",
"l 	c #EED47D",
"m 	c #FDF6C4",
"n 	c #F6DD6C",
"o 	c #EDCA6D",
"p 	c #D7A363",
"q 	c #C99864",
"r 	c #5A88C7",
"s 	c #336EB4",
"t 	c #7EA5D0",
"u 	c #2E6CB2",
"v 	c #DDD6B5",
"w 	c #EED379",
"x 	c #FDF7C7",
"y 	c #F5DC5F",
"z 	c #F7E25B",
"A 	c #F2D67A",
"B 	c #E2A251",
"C 	c #687A9D",
"D 	c #5B86C5",
"E 	c #2C67AF",
"F 	c #75A0CD",
"G 	c #2B64AD",
"H 	c #E7D6B1",
"I 	c #E7CB77",
"J 	c #F5DC5E",
"K 	c #F7E15A",
"L 	c #F1D47B",
"M 	c #DC994B",
"N 	c #F7E8D6",
"O 	c #5072AC",
"P 	c #5A86C4",
"Q 	c #749FCD",
"R 	c #586E7D",
"S 	c #D7BA76",
"T 	c #FDF6C2",
"U 	c #F7DF63",
"V 	c #F8E25D",
"W 	c #F0D379",
"X 	c #DC9849",
"Y 	c #DDDAD9",
"Z 	c #4F71A8",
"` 	c #5882C2",
" .	c #576675",
"..	c #D5B67A",
"+.	c #D1B790",
"@.	c #E4C955",
"#.	c #F5DF5B",
"$.	c #EDD078",
"%.	c #DA9B50",
"&.	c #DDD9D7",
"*.	c #4E6FA7",
"=.	c #5580C0",
"-.	c #AA8943",
";.	c #FFF2E0",
">.	c #D89A54",
",.	c #BE7A1A",
"'.	c #C59849",
").	c #C78F49",
"!.	c #F7EADC",
"~.	c #4D6EA6",
"{.	c #557DBE",
"].	c #547CBD",
"^.	c #537BBC",
"/.	c #82652D",
"(.	c #F9C794",
"_.	c #F9C991",
":.	c #C98541",
"<.	c #A66523",
"[.	c #637293",
"}.	c #4E6FA8",
"|.	c #4D6EA7",
"1.	c #4D6EA4",
"2.	c #553D11",
"3.	c #875F28",
"4.	c #BD8849",
"5.	c #BC8D42",
"                                ",
"    . . . + @ # $ % & * = - ;   ",
"  . > > > > > > > > > > > > ,   ",
"  . > ' ' ' ) ) ) ) ) ) ) > !   ",
"  ~ > ' { { ] ] ] ] ] ] ) > ^   ",
"  / > ) ) ) ) ) ) ) ) ( _ : <   ",
"  [ > > > > > > > > } | 1 2 3 4 ",
"  5 > 6 7 8 > 9 9 0 a b c d e f ",
"  g > h i j > 9 k l m n o p q   ",
"  r > s t u > v w x y z A B C   ",
"  D > E F G H I x J K L M N O   ",
"  P > E Q R S T U V W X Y > Z   ",
"  ` > E  ...+.@.#.$.%.&.9 > *.  ",
"  =.> > -.;.>.,.'.).!.> > > ~.  ",
"  {.].^./.(._.:.<.[.}.|.~.1.~.  ",
"        2.3.4.5.                "};
