/* XPM */
static const char * connect_xpm[] = {
"16 16 117 2",
"  	c None",
". 	c #7CA1D4",
"+ 	c #709AD0",
"@ 	c #81A7D9",
"# 	c #82A7D8",
"$ 	c #8BACD7",
"% 	c #84A7D3",
"& 	c #5685C1",
"* 	c #98B8E6",
"= 	c #93B4E3",
"- 	c #8EB1DF",
"; 	c #89ABDA",
"> 	c #8CADDA",
", 	c #98B5DC",
"' 	c #90AFD7",
") 	c #749BCC",
"! 	c #4478B7",
"~ 	c #9DBAE4",
"{ 	c #ABC4E6",
"] 	c #A4BEE2",
"^ 	c #9CB9DE",
"/ 	c #93B2D9",
"( 	c #7FA3D1",
"_ 	c #85A6D1",
": 	c #517FBB",
"< 	c #86B3C5",
"[ 	c #A3BEE2",
"} 	c #9AB7DF",
"| 	c #86A8D5",
"1 	c #7DA1D0",
"2 	c #739ACB",
"3 	c #80A2CE",
"4 	c #628BBF",
"5 	c #3C68AB",
"6 	c #9AB8E6",
"7 	c #92B2BA",
"8 	c #82C577",
"9 	c #81B0B5",
"0 	c #92B0D8",
"a 	c #8FAED7",
"b 	c #6F97C9",
"c 	c #668FC3",
"d 	c #769BC8",
"e 	c #4A71B1",
"f 	c #97B7E5",
"g 	c #9FBBE4",
"h 	c #85A6A0",
"i 	c #7FC176",
"j 	c #5A8FB0",
"k 	c #6F96C7",
"l 	c #7B9ECB",
"m 	c #5985BC",
"n 	c #6C92C3",
"o 	c #3F63A6",
"p 	c #8FB1E0",
"q 	c #A4BFE2",
"r 	c #8EADD8",
"s 	c #7194A8",
"t 	c #4878A4",
"u 	c #5D84BB",
"v 	c #698FC0",
"w 	c #618ABC",
"x 	c #35529C",
"y 	c #89ABDB",
"z 	c #A2BDE1",
"A 	c #87AAD6",
"B 	c #94B3D9",
"C 	c #7A9FCE",
"D 	c #5F8995",
"E 	c #7CBC6D",
"F 	c #466F93",
"G 	c #4F75B0",
"H 	c #4162A4",
"I 	c #2B438F",
"J 	c #7EA3D4",
"K 	c #749ACC",
"L 	c #83A4CF",
"M 	c #769AC8",
"N 	c #648C7D",
"O 	c #7AB86A",
"P 	c #35508C",
"Q 	c #2A418E",
"R 	c #6D98CE",
"S 	c #86A8D3",
"T 	c #8EACD6",
"U 	c #7198C9",
"V 	c #6890C4",
"W 	c #5F8ABF",
"X 	c #678FC2",
"Y 	c #648BBF",
"Z 	c #47687F",
"` 	c #769DCE",
" .	c #8CACD5",
"..	c #769BCB",
"+.	c #7CA0CC",
"@.	c #6F95C5",
"#.	c #486DAC",
"$.	c #7199CC",
"%.	c #81A3D0",
"&.	c #7B9ECA",
"*.	c #5D85BC",
"=.	c #4971AF",
"-.	c #4064A7",
";.	c #38579E",
">.	c #304A97",
",.	c #5988C3",
"'.	c #7DA2CF",
").	c #80A2CD",
"!.	c #668CC0",
"~.	c #4972B0",
"{.	c #385DA5",
"].	c #4A7BBA",
"^.	c #5F89C0",
"/.	c #6289BF",
"(.	c #476DAF",
"_.	c #3D69AB",
":.	c #395FA7",
"                          . +   ",
"                      @ # $ % & ",
"              * = - ; > , ' ) ! ",
"              ~ { ] ^ / ( _ :   ",
"            < [ } | 1 2 3 4 5   ",
"        6 7 8 9 0 a b c d e     ",
"      f g g h i j k l m n o     ",
"      p { q r s   t u v w x     ",
"      y z A B C D E F G H I     ",
"      J , 1 K L M N O P Q       ",
"    R S T U V W X Y Z           ",
"    `  ...+.d @.v #.            ",
"  $.%.L &.*.=.-.;.>.            ",
",.'.).!.~.{.                    ",
"].^./.(.                        ",
"  _.:.                          "};
