/* XPM */
static const char * dumpshp_xpm[] = {
"16 16 16 1",
" 	c None",
".	c #5AB24A",
"+	c #41A0E9",
"@	c #8BCC5C",
"#	c #ECF7E6",
"$	c #D3EDBC",
"%	c #D0EBFA",
"&	c #0A5EC5",
"*	c #9BD48C",
"=	c #BCE7B1",
"-	c #94B7E3",
";	c #A7D6A3",
">	c #209910",
",	c #638F45",
"'	c #106CD2",
")	c #FFFFFF",
"     ))))))     ",
"     ),@.,)     ",
"    )),@@,))    ",
"   ),,,@@,,,)   ",
"   )),@@@@,))   ",
"  )>#),@.,#=>)  ",
"  )'#$#,,#.=>)  ",
" )'%$$*%%.@@=>) ",
" )'%+*+++@@.;>) ",
" )'%+-+++...;>) ",
" )>$*.+++''>;') ",
"  )>$@..'&&-')  ",
"  )>==>.'&--')  ",
"   )>>;;--'')   ",
"    ))>'''))    ",
"      ))))      "};
