/* XPM */
static const char * dxf_xpm[] = {
"16 16 64 1",
" 	c None",
".	c #717171",
"+	c #828282",
"@	c #9F9F9F",
"#	c #9D9D9D",
"$	c #7E7E7E",
"%	c #818181",
"&	c #6B99D2",
"*	c #85B2E7",
"=	c #95BBEB",
"-	c #8CB6E9",
";	c #6A9FE2",
">	c #9E9E9E",
",	c #878787",
"'	c #727376",
")	c #88B0E1",
"!	c #679EE2",
"~	c #619AE0",
"{	c #5996E0",
"]	c #5A96E0",
"^	c #94B8E3",
"/	c #74A6E3",
"(	c #80AEE6",
"_	c #80AEE7",
":	c #6E9458",
"<	c #668E4F",
"[	c #598440",
"}	c #48783A",
"|	c #81AEE6",
"1	c #88B3E7",
"2	c #688F51",
"3	c #81AB61",
"4	c #B4D495",
"5	c #D0E6BA",
"6	c #8FBB6A",
"7	c #578F2D",
"8	c #376B1A",
"9	c #72A5E3",
"0	c #90B8E8",
"a	c #5D8744",
"b	c #B1D390",
"c	c #B1D692",
"d	c #FFFFFF",
"e	c #8CBC65",
"f	c #8FBC67",
"g	c #376B19",
"h	c #5F99E0",
"i	c #92B9EA",
"j	c #4C7B31",
"k	c #B6D49C",
"l	c #B2D295",
"m	c #4B84D9",
"n	c #91B8E9",
"o	c #518DDA",
"p	c #396C1B",
"q	c #8BBA62",
"r	c #87BA60",
"s	c #87B960",
"t	c #87B2E7",
"u	c #6EA3E2",
"v	c #538C28",
"w	c #8DBA64",
"x	c #79AAE5",
"y	c #78AAE3",
"         .      ",
"        . .     ",
"        +.      ",
"       @        ",
"     #@         ",
"    $%&*=-;     ",
"   >,')!~{~]    ",
"   @ ^          ",
" .+ /(          ",
". . (_     :<[} ",
" .  |1   2345678",
"    90   abcdefg",
"    hi   jkdddlg",
"    mno  pqrdsfg",
"     tu  gvwlwvg",
"     xy   ggggg "};
