/* XPM */
static const char * exif_xpm[] = {
"16 16 114 2",
"  	c None",
". 	c #AA7128",
"+ 	c #A96F27",
"@ 	c #A76E26",
"# 	c #A56C25",
"$ 	c #A36A23",
"% 	c #A06822",
"& 	c #9D6620",
"* 	c #9B641F",
"= 	c #98611D",
"- 	c #955F1C",
"; 	c #A86F26",
"> 	c #DDA252",
", 	c #DA934D",
"' 	c #D59243",
") 	c #D1913C",
"! 	c #CD8E3C",
"~ 	c #CB8B3A",
"{ 	c #BE843E",
"] 	c #CA924B",
"^ 	c #905B19",
"/ 	c #D8903F",
"( 	c #61BCF3",
"_ 	c #62BDF3",
": 	c #5DB8F1",
"< 	c #4DA6E9",
"[ 	c #368EDE",
"} 	c #CA9249",
"| 	c #8C5817",
"1 	c #A26A23",
"2 	c #DD9148",
"3 	c #5CB6F0",
"4 	c #5EB8F1",
"5 	c #5CB7F0",
"6 	c #A47536",
"7 	c #A27234",
"8 	c #9F7032",
"9 	c #A86E26",
"0 	c #A16922",
"a 	c #9E6721",
"b 	c #D98F46",
"c 	c #4BA4E8",
"d 	c #4FA8EA",
"e 	c #4CA5E8",
"f 	c #A17233",
"g 	c #D2A15B",
"h 	c #CE9256",
"i 	c #D49244",
"j 	c #CC8D39",
"k 	c #9A631F",
"l 	c #D48A43",
"m 	c #368DDE",
"n 	c #3890DF",
"o 	c #9B6F35",
"p 	c #CC8F49",
"q 	c #35C62D",
"r 	c #40C723",
"s 	c #3CC321",
"t 	c #3BCD27",
"u 	c #43D12E",
"v 	c #57DA3F",
"w 	c #96601C",
"x 	c #CC8A43",
"y 	c #6EE454",
"z 	c #CF9037",
"A 	c #885514",
"B 	c #925D1A",
"C 	c #8F5A18",
"D 	c #6EE46E",
"E 	c #CA8B51",
"F 	c #845112",
"G 	c #38BAED",
"H 	c #58BFFF",
"I 	c #62BBFF",
"J 	c #44B6FF",
"K 	c #DBEB8C",
"L 	c #FFFF6D",
"M 	c #78EF69",
"N 	c #CE8F45",
"O 	c #804E10",
"P 	c #3BCE45",
"Q 	c #07BE31",
"R 	c #5AB7FF",
"S 	c #58B6FF",
"T 	c #97D1CC",
"U 	c #F3FA8A",
"V 	c #C99A40",
"W 	c #C7883D",
"X 	c #7D4C0E",
"Y 	c #4BC84F",
"Z 	c #36CB21",
"` 	c #42C825",
" .	c #54B8AC",
"..	c #42A6FF",
"+.	c #00A2FF",
"@.	c #7E4D0F",
"#.	c #7C4B0E",
"$.	c #7A490D",
"%.	c #77F35E",
"&.	c #A4FF8C",
"*.	c #ACFF77",
"=.	c #7CF634",
"-.	c #75EF55",
";.	c #64FF79",
">.	c #C59046",
",.	c #C6954A",
"'.	c #E8D462",
").	c #E9D461",
"!.	c #C99644",
"~.	c #8C5816",
"{.	c #895515",
"].	c #865313",
"^.	c #835112",
"/.	c #804F10",
"                                ",
". + @ # $ % & * = -             ",
"; > , ' ) ! ~ { ] ^             ",
"# / ( _ ( : < [ } |             ",
"1 2 3 4 5 6 7 8 9 0 % & * = -   ",
"a b c d e f g h i j ! ~ { ] ^   ",
"k l m n [ o p q r s t u v } |   ",
"w x . + @ # $ % & * = - y z A   ",
"B C ; > , ' ) ! ~ { ] ^ D E F   ",
"    # / G H I J K L } | M N O   ",
"    1 2 P Q R S T U z A V W X   ",
"    a b Y Z `  ...+.E F @.#.$.  ",
"    k l %.&.*.=.-.;.N O         ",
"    w x >.,.'.).!.V W X         ",
"    B C ~.{.].^./.@.#.$.        ",
"                                "};
