/* XPM */
static const char * foreign_key_xpm[] = {
"16 16 103 2",
"  	c None",
". 	c #8CB2E4",
"+ 	c #88AFE2",
"@ 	c #84ACE0",
"# 	c #80A9DD",
"$ 	c #7DA5DC",
"% 	c #7AA3DA",
"& 	c #A2C1EF",
"* 	c #9FC0ED",
"= 	c #9DBEEB",
"- 	c #9ABCEB",
"; 	c #F4F7FB",
"> 	c #74A0D7",
", 	c #A1C1EE",
"' 	c #89C682",
") 	c #84C37E",
"! 	c #80C17A",
"~ 	c #7CBE76",
"{ 	c #6F9BD4",
"] 	c #9EBFEC",
"^ 	c #A5D59C",
"/ 	c #A1D398",
"( 	c #9DD094",
"_ 	c #FFFFFF",
": 	c #6A97D1",
"< 	c #9BBDEB",
"[ 	c #A6C3E9",
"} 	c #6493CE",
"| 	c #55A14D",
"1 	c #4F9947",
"2 	c #589A51",
"3 	c #ACC7E8",
"4 	c #EBF1F7",
"5 	c #5F8FCB",
"6 	c #539E4B",
"7 	c #81BD7B",
"8 	c #87C281",
"9 	c #50904A",
"0 	c #A9C4E8",
"a 	c #B0C9E9",
"b 	c #B0C8E8",
"c 	c #B5CCE8",
"d 	c #DEE7F2",
"e 	c #598AC8",
"f 	c #519B49",
"g 	c #7AB874",
"h 	c #579B50",
"i 	c #3E8337",
"j 	c #478643",
"k 	c #AAC6E9",
"l 	c #ACC6E9",
"m 	c #ACC7EA",
"n 	c #DBE5F1",
"o 	c #5586C6",
"p 	c #76B56F",
"q 	c #42883B",
"r 	c #8CB1E3",
"s 	c #F1F6FA",
"t 	c #AEC9EA",
"u 	c #B0C9EA",
"v 	c #AEC8E8",
"w 	c #67AC60",
"x 	c #63A75C",
"y 	c #71B26B",
"z 	c #408639",
"A 	c #87AEE1",
"B 	c #F0F4FA",
"C 	c #B2CBEA",
"D 	c #B3CCEA",
"E 	c #BACFEA",
"F 	c #F2F6FB",
"G 	c #5FA25A",
"H 	c #80BF7A",
"I 	c #6DB067",
"J 	c #82AADF",
"K 	c #EFF3F9",
"L 	c #B7CEEA",
"M 	c #BBD0EB",
"N 	c #B5CDEA",
"O 	c #589953",
"P 	c #3C8035",
"Q 	c #7EA8DD",
"R 	c #BAD0EB",
"S 	c #ADC7EA",
"T 	c #D8E2F0",
"U 	c #5F8CC6",
"V 	c #7AA4D9",
"W 	c #EEF3F9",
"X 	c #BED2EB",
"Y 	c #BFD3EB",
"Z 	c #5D8AC5",
"` 	c #75A1D7",
" .	c #EDF2F8",
"..	c #EAF0F7",
"+.	c #E6EDF6",
"@.	c #E2EAF4",
"#.	c #5284C3",
"$.	c #4277BB",
"%.	c #729ED6",
"&.	c #6E99D3",
"*.	c #6896D1",
"=.	c #6392CE",
"-.	c #5E8ECB",
"                                ",
". + @ # $ %             & * = - ",
"; ; ; ; ; >           , ; ; ; ; ",
"' ) ! ~ ; {           ] ; ^ / ( ",
"_ _ _ _ ; :           < ; _ _ _ ",
"[ [ [ [ ; }         | 1 2 [ [ [ ",
"3 _ _ _ 4 5       6 7 8 9 [ _ 0 ",
"3 a b c d e     f g h i j k l m ",
"3 _ _ _ n o   1 p q   r s t _ u ",
"3 3 b v w 6 x y z     A B C D D ",
"E F _ _ G H I i       J K L _ M ",
"N N N N O q P         Q K R M M ",
"S _ _ _ T U           V W X _ Y ",
"T T T T T Z           `  ...+.@.",
"#.#.#.#.#.$.          %.&.*.=.-.",
"                                "};
