/* XPM */
static const char * geoview_xpm[] = {
"16 16 154 2",
"  	c None",
". 	c #B9B9B9",
"+ 	c #B7B7B7",
"@ 	c #B5B5B5",
"# 	c #B2B2B2",
"$ 	c #B0B0B0",
"% 	c #BABABA",
"& 	c #D6D6D6",
"* 	c #EDEDED",
"= 	c #F9F9F9",
"- 	c #FBFBFB",
"; 	c #F0F0F0",
"> 	c #D9D9D9",
", 	c #ABABAB",
"' 	c #B8B8B8",
") 	c #F6F6F6",
"! 	c #F4F4F4",
"~ 	c #A8A8A8",
"{ 	c #93B7E7",
"] 	c #90B5E6",
"^ 	c #8CB2E4",
"/ 	c #88AFE2",
"( 	c #84ACE0",
"_ 	c #80A9DD",
": 	c #7DA5DC",
"< 	c #7AA3DA",
"[ 	c #B6B6B6",
"} 	c #F2F2F2",
"| 	c #E4E4E4",
"1 	c #E2E2E2",
"2 	c #C8C8C8",
"3 	c #F1F1F1",
"4 	c #A5A5A5",
"5 	c #F4F7FB",
"6 	c #74A0D7",
"7 	c #B4B4B4",
"8 	c #F8F8F8",
"9 	c #DBDBDB",
"0 	c #EFEFEF",
"a 	c #D0D0D0",
"b 	c #FFFFFF",
"c 	c #A2A2A2",
"d 	c #93CB8B",
"e 	c #8EC987",
"f 	c #89C682",
"g 	c #84C37E",
"h 	c #80C17A",
"i 	c #7CBE76",
"j 	c #6F9BD4",
"k 	c #B1B1B1",
"l 	c #D5D5D5",
"m 	c #CBCBCB",
"n 	c #ACBECB",
"o 	c #99CBA6",
"p 	c #73B76F",
"q 	c #5C95D5",
"r 	c #82AEE1",
"s 	c #EEF5F8",
"t 	c #6A97D1",
"u 	c #AEAEAE",
"v 	c #D1D1D1",
"w 	c #ECECEC",
"x 	c #C5C5C5",
"y 	c #C6C6C6",
"z 	c #CAE6CB",
"A 	c #57AA56",
"B 	c #D0E9BC",
"C 	c #C8DFF1",
"D 	c #88B6D7",
"E 	c #408D8C",
"F 	c #D5E3F4",
"G 	c #6493CE",
"H 	c #ACACAC",
"I 	c #FAFAFA",
"J 	c #D7D7D7",
"K 	c #CACACA",
"L 	c #CEDBE8",
"M 	c #3E8C8A",
"N 	c #E7F8C8",
"O 	c #8ACA77",
"P 	c #3A9AEA",
"Q 	c #67B58D",
"R 	c #4EA544",
"S 	c #F7F9FB",
"T 	c #5F8FCB",
"U 	c #A9A9A9",
"V 	c #EAEAEA",
"W 	c #97BCE7",
"X 	c #ADD6F9",
"Y 	c #A3D88A",
"Z 	c #4AA8B7",
"` 	c #4BA7CE",
" .	c #78C94E",
"..	c #4AA241",
"+.	c #B2C8E5",
"@.	c #9CA4AF",
"#.	c #AAABAB",
"$.	c #9CA0A4",
"%.	c #4882C4",
"&.	c #6EB0CC",
"*.	c #56AB55",
"=.	c #44A03A",
"-.	c #C3D4EA",
";.	c #8AACD8",
">.	c #DBDEE3",
",.	c #A9BBD2",
"'.	c #4283CB",
").	c #DBE8ED",
"!.	c #C2D4EA",
"~.	c #82AADF",
"{.	c #EFF3F9",
"].	c #B7CEEA",
"^.	c #9BCD9A",
"/.	c #2571C6",
"(.	c #55A74F",
"_.	c #90B0D9",
":.	c #7EA8DD",
"<.	c #BAD0EB",
"[.	c #E5EDF7",
"}.	c #4DA348",
"|.	c #2E9628",
"1.	c #9BCAFA",
"2.	c #3078C8",
"3.	c #E7EDF6",
"4.	c #5C8AC6",
"5.	c #7AA4D9",
"6.	c #EEF3F9",
"7.	c #BED2EB",
"8.	c #DCE7F4",
"9.	c #56A94D",
"0.	c #5491DB",
"a.	c #3E81CC",
"b.	c #D8E2F0",
"c.	c #5F8CC6",
"d.	c #75A1D7",
"e.	c #EDF2F8",
"f.	c #EAF0F7",
"g.	c #E6EDF6",
"h.	c #E2EAF4",
"i.	c #54A74E",
"j.	c #4A88CE",
"k.	c #E7EDF5",
"l.	c #5D8AC5",
"m.	c #729ED6",
"n.	c #6E99D3",
"o.	c #6896D1",
"p.	c #6392CE",
"q.	c #5E8ECB",
"r.	c #5B8AC9",
"s.	c #95B4DC",
"t.	c #AEC5E3",
"u.	c #89ABD6",
"v.	c #5284C3",
"w.	c #4277BB",
"    . + @ # $                   ",
"% & * = - ; > ,                 ",
"' ) ! = - ) ) ~ { ] ^ / ( _ : < ",
"[ } > | 1 2 3 4 5 5 5 5 5 5 5 6 ",
"7 8 9 0 a a b c d e f g h i 5 j ",
"k 8 l 0 m m b n o p q r s b 5 t ",
"u 8 v w x y z A B b C D E F 5 G ",
"H I J 1 K L M b N O P Q B R S T ",
"U m V ; } W X N Y Z `  .O O ..+.",
"    @.#.$.%.X D &.P `  .*.Y =.-.",
"    ;.>.,.'.).&.P P ` *.=.Y =.!.",
"    ~.{.].^.Y O Q Z P /.M Q (._.",
"    :.{.<.[.}.N  .|././.1.2.3.4.",
"    5.6.7.b 8.9.O O &.0.a.b b.c.",
"    d.e.f.g.h.e.i././.j.k.b.b.l.",
"    m.n.o.p.q.r.s.t.t.u.v.v.v.w."};
