/* XPM */
static const char * hs_back_xpm[] = {
"16 16 32 1",
" 	c None",
".	c #244E15",
"+	c #DCF2D3",
"@	c #4CA82D",
"#	c #B0E19D",
"$	c #449528",
"%	c #57BE39",
"&	c #5DC23C",
"*	c #C5E9B8",
"=	c #B3E2A2",
"-	c #2B5F1A",
";	c #8ADD5A",
">	c #77D14D",
",	c #74CB5C",
"'	c #BCE6A9",
")	c #7DD451",
"!	c #84DA56",
"~	c #3C8324",
"{	c #64C441",
"]	c #A3DD8C",
"^	c #8FE05D",
"/	c #70CB49",
"(	c #CEECC3",
"_	c #6ACA45",
":	c #D8F0CF",
"<	c #D3EEC9",
"[	c #51BA35",
"}	c #34731F",
"|	c #8CD473",
"1	c #DFF3D8",
"2	c #7DCE65",
"3	c #FFFFFF",
"      3333      ",
"    33@@@$33    ",
"   3@@11+:$$3   ",
"  3@11'^;#<(~3  ",
" 3@1(^^;;!)=*}3 ",
" 3@1^^^3!)>/*}3 ",
"3@+';;33)>/_|'-3",
"3$:!!333333{&'-3",
"3$<))333333&%=-3",
"3~(]>/33_{&%,=.3",
" 3~*__{3&&%[=.3 ",
" 3}*]{&&%%[|#.3 ",
"  3}''2[[,##.3  ",
"   3--==##..3   ",
"    33....33    ",
"      3333      "};
