/* XPM */
static const char * hs_forward_xpm[] = {
"16 16 32 1",
" 	c None",
".	c #244E15",
"+	c #DEF3D7",
"@	c #4CA82D",
"#	c #B0E19D",
"$	c #449528",
"%	c #74CB5C",
"&	c #8ADD59",
"*	c #57BE39",
"=	c #C5E9B8",
"-	c #B3E2A2",
";	c #5DC23C",
">	c #2B5F1A",
",	c #BCE6A9",
"'	c #84D956",
")	c #6BC946",
"!	c #78D14E",
"~	c #3C8324",
"{	c #A3DD8C",
"]	c #8FE05D",
"^	c #CEECC3",
"/	c #63C440",
"(	c #72CF4B",
"_	c #D9F0D0",
":	c #D3EEC9",
"<	c #7ED652",
"[	c #51BA35",
"}	c #34731F",
"|	c #8CD473",
"1	c #6DCB47",
"2	c #7DCE65",
"3	c #FFFFFF",
"      3333      ",
"    33@@@$33    ",
"   3@@+++_$$3   ",
"  3@++,]&#:^~3  ",
" 3@+^]]&&'!-=}3 ",
" 3@+]]]&3!!1=}3 ",
"3@_,&&&'33))|,>3",
"3$_''333333/;,>3",
"3$:<<333333;*->3",
"3~^{(((133;*%-.3",
" 3~=1))/3;*[-.3 ",
" 3}={/;;**[|#.3 ",
"  3},,2[[%##.3  ",
"   3>>--##..3   ",
"    33....33    ",
"      3333      "};
