/* XPM */
static const char * icon_xpm[] = {
"32 32 9 1",
" 	c None",
".	c #5F6431",
"+	c #496E14",
"@	c #AF5C57",
"#	c #916864",
"$	c #5F8B22",
"%	c #878882",
"&	c #9C9D9A",
"*	c #C1C2BF",
"                             *  ",
"                            *** ",
"                          &**** ",
"                         &&**** ",
"                        &&***** ",
"                       &&&***** ",
"                       &&&***** ",
"                      &&&&******",
"                      &&&&******",
"                #####&&&&&&*****",
"              #######&&&&&***** ",
"             #####@#&&&&&&***** ",
"            ####@@@##@@##*****  ",
"            ##@@@@@@@@@@@&****  ",
"           ###@@@@@@@@@@@#***   ",
"           #@@@@@@@@@@@@@@&**   ",
"          .#@@@@@@@@@@@@@@#*    ",
"        .+.#@@@@@@@@@@@@@@#.+.  ",
"       +++##@@@@@@@@@@@@@@@#+++ ",
"      +++ ###@@@@@@@@@@@@@@# ++ ",
"      +++ ###@@@@@@@@@@@@@## +++",
"      +++ ###@@@@@@@@@@@@@#  ++$",
"      ++++##@@@@@@@@@@@@@@# ++$$",
"       $++.##@@@@@@@@@@@@##++$$ ",
"        $$++.#@@@@@@@@@##.++$$  ",
"         $$$++++......+++$$$$   ",
"        %%%+$$$$$$$$+$$$$$$     ",
"       %&%%&&%..+$$$$+..        ",
"      %%%&&****########         ",
"     %%%&&&&*&*                 ",
"  &&  %&&*&&                    ",
"        &                       "};
