/* XPM */
static const char * index_xpm[] = {
"16 16 141 2",
"  	c None",
". 	c #A2C1EF",
"+ 	c #9FC0ED",
"@ 	c #9DBEEB",
"# 	c #9ABCEB",
"$ 	c #96BAE9",
"% 	c #93B7E7",
"& 	c #90B5E6",
"* 	c #8CB2E4",
"= 	c #88AFE2",
"- 	c #84ACE0",
"; 	c #80A9DD",
"> 	c #7DA5DC",
", 	c #7AA3DA",
"' 	c #A1C1EE",
") 	c #F4F7FB",
"! 	c #74A0D7",
"~ 	c #B2C3BF",
"{ 	c #ECD45D",
"] 	c #E0CC4B",
"^ 	c #DEC949",
"/ 	c #DCC547",
"( 	c #DAC243",
"_ 	c #D9BE40",
": 	c #D2BB42",
"< 	c #93C479",
"[ 	c #84C37E",
"} 	c #80C17A",
"| 	c #7CBE76",
"1 	c #6F9BD4",
"2 	c #CAC686",
"3 	c #F3DE74",
"4 	c #F6E389",
"5 	c #F5DE85",
"6 	c #F4D981",
"7 	c #F1D378",
"8 	c #E8C250",
"9 	c #F4E3B3",
"0 	c #FFFEFD",
"a 	c #FFFFFF",
"b 	c #6A97D1",
"c 	c #E6C846",
"d 	c #F8E793",
"e 	c #F4D85F",
"f 	c #F6E090",
"g 	c #F2D67D",
"h 	c #E9C352",
"i 	c #BDBD9F",
"j 	c #A6C3E9",
"k 	c #6493CE",
"l 	c #EAC93D",
"m 	c #F1D96B",
"n 	c #F8E796",
"o 	c #F2CF47",
"p 	c #F4DC89",
"q 	c #E0B737",
"r 	c #F2DEA6",
"s 	c #ACC7E8",
"t 	c #EBF1F7",
"u 	c #5F8FCB",
"v 	c #E8C53A",
"w 	c #F8E690",
"x 	c #F7E38D",
"y 	c #F2D260",
"z 	c #F4D784",
"A 	c #DCB33A",
"B 	c #C8B87E",
"C 	c #C6B882",
"D 	c #C8B47B",
"E 	c #C1B386",
"F 	c #B4C3D1",
"G 	c #B0C8E8",
"H 	c #B5CCE8",
"I 	c #DEE7F2",
"J 	c #598AC8",
"K 	c #F0D86E",
"L 	c #EFD368",
"M 	c #EDCF66",
"N 	c #F3D984",
"O 	c #F4D788",
"P 	c #F1CF7D",
"Q 	c #E8BC58",
"R 	c #E5B752",
"S 	c #D79D22",
"T 	c #BBB399",
"U 	c #FDFAF5",
"V 	c #DBE5F1",
"W 	c #5586C6",
"X 	c #E5BD35",
"Y 	c #B8B484",
"Z 	c #E8D18B",
"` 	c #DCB33C",
" .	c #F0D07D",
"..	c #ECC76D",
"+.	c #E2B244",
"@.	c #C9AE6C",
"#.	c #BBC6CE",
"$.	c #AEC8E8",
"%.	c #D8E2F0",
"&.	c #5486C4",
"*.	c #82AADF",
"=.	c #EEEFEE",
"-.	c #DCAD31",
";.	c #E6BA51",
">.	c #D7A839",
",.	c #F0D9AB",
"'.	c #BACFEA",
").	c #F2F6FB",
"!.	c #5F8DC8",
"~.	c #7EA8DD",
"{.	c #E2BE5F",
"].	c #E3B543",
"^.	c #D0B266",
"/.	c #BDCDDE",
"(.	c #BBD0EB",
"_.	c #BDD1EB",
":.	c #B5CDEA",
"<.	c #5C8AC6",
"[.	c #96A6A6",
"}.	c #DDB040",
"|.	c #C7C3AC",
"1.	c #BFD3EB",
"2.	c #ADC7EA",
"3.	c #5F8CC6",
"4.	c #87A2B7",
"5.	c #EAE4D3",
"6.	c #EAF0F7",
"7.	c #E6EDF6",
"8.	c #E2EAF4",
"9.	c #DEE7F3",
"0.	c #DBE4F1",
"a.	c #5D8AC5",
"b.	c #729ED6",
"c.	c #6E99D3",
"d.	c #6896D1",
"e.	c #6392CE",
"f.	c #5E8ECB",
"g.	c #5B8AC9",
"h.	c #5687C7",
"i.	c #5284C3",
"j.	c #4277BB",
"                                ",
"      . + @ # $ % & * = - ; > , ",
"    ' ) ) ) ) ) ) ) ) ) ) ) ) ! ",
"    ~ { ] ^ / ( _ : < [ } | ) 1 ",
"    2 3 4 5 6 7 8 9 0 a a a ) b ",
"    c d e f g h i j j j j j ) k ",
"  l m n o p q r a a s a a a t u ",
"  v w x y z A B C D E F G H I J ",
"v K L M N O P Q R S T U a a V W ",
"  X Y Z `  ...+.@.#.s s G $.%.&.",
"    *.=.-.;.>.,.a a '.).a a %.!.",
"    ~.{.].^./.(.(._.:.:.:.:.%.<.",
"    [.}.|.a 1.a a a 2.a a a %.3.",
"    4.5.6.7.8.9.0.%.%.%.%.%.%.a.",
"    b.c.d.e.f.g.h.i.i.i.i.i.i.j.",
"                                "};
