/* XPM */
static const char * loadxl_xpm[] = {
"16 16 168 2",
"  	c None",
". 	c #4D8BC8",
"+ 	c #4F8CC8",
"@ 	c #4F8DC8",
"# 	c #4F8CC9",
"$ 	c #4F8BC7",
"% 	c #4B89C5",
"& 	c #3B76C4",
"* 	c #4985C4",
"= 	c #ECF2F7",
"- 	c #EEF4F8",
"; 	c #EDF4F8",
"> 	c #EDF3F8",
", 	c #ECF2F8",
"' 	c #D7E6F2",
") 	c #7DB2E2",
"! 	c #6594DB",
"~ 	c #4B88C5",
"{ 	c #F2F6FA",
"] 	c #C7E0FA",
"^ 	c #C9E1FB",
"/ 	c #C9E2FB",
"( 	c #C8E0FB",
"_ 	c #C5DFF9",
": 	c #C1DBF8",
"< 	c #B8D6F4",
"[ 	c #F8FBFF",
"} 	c #B4D8F6",
"| 	c #7DB0E1",
"1 	c #6492DB",
"2 	c #4C89C6",
"3 	c #F1F5F9",
"4 	c #CDE3FC",
"5 	c #CEE3FB",
"6 	c #CDE3FB",
"7 	c #CBE2FB",
"8 	c #C8E0F9",
"9 	c #C2DCF8",
"0 	c #BAD6F5",
"a 	c #F8FBFD",
"b 	c #CDE6FC",
"c 	c #C9E5FA",
"d 	c #84B6E2",
"e 	c #4279BF",
"f 	c #588D43",
"g 	c #568C55",
"h 	c #669653",
"i 	c #639554",
"j 	c #95B9A1",
"k 	c #83AE8D",
"l 	c #427F2E",
"m 	c #417F2E",
"n 	c #48843A",
"o 	c #458236",
"p 	c #90B490",
"q 	c #F3F7FB",
"r 	c #E9EFF5",
"s 	c #457EC2",
"t 	c #BED3B5",
"u 	c #B5DA9C",
"v 	c #95C874",
"w 	c #5F934A",
"x 	c #74A45D",
"y 	c #6EA159",
"z 	c #649750",
"A 	c #629762",
"B 	c #B4D1E9",
"C 	c #B5D4F3",
"D 	c #B3D2F1",
"E 	c #F0F4F8",
"F 	c #4682C4",
"G 	c #538B6F",
"H 	c #C8D9C0",
"I 	c #A3D382",
"J 	c #8AC16D",
"K 	c #60964B",
"L 	c #649751",
"M 	c #689A67",
"N 	c #C3DCF4",
"O 	c #BDDAF6",
"P 	c #BBD8F6",
"Q 	c #EFF4FA",
"R 	c #4683C6",
"S 	c #4988C2",
"T 	c #719E61",
"U 	c #CCDCC5",
"V 	c #97C976",
"W 	c #87BC73",
"X 	c #609355",
"Y 	c #CCE0F5",
"Z 	c #CCE1FB",
"` 	c #C3DDF9",
" .	c #EDF4FA",
"..	c #4582C6",
"+.	c #3F7E7F",
"@.	c #37781F",
"#.	c #5D9148",
"$.	c #CDDDC7",
"%.	c #84C06A",
"&.	c #82B671",
"*.	c #598E44",
"=.	c #A1C1B1",
"-.	c #D0E4FB",
";.	c #CCE3FB",
">.	c #C7DFFA",
",.	c #C6DFFA",
"'.	c #EAF2FA",
").	c #4280C6",
"!.	c #33751B",
"~.	c #6EA05B",
"{.	c #5C9649",
"].	c #5B9047",
"^.	c #71B65D",
"/.	c #75AE67",
"(.	c #588D44",
"_.	c #CDE2FC",
":.	c #CBE1FB",
"<.	c #F2F7FB",
"[.	c #3F7CC5",
"}.	c #33751A",
"|.	c #337519",
"1.	c #337419",
"2.	c #528A44",
"3.	c #6B9B61",
"4.	c #C3D6BB",
"5.	c #84BB78",
"6.	c #6AAB61",
"7.	c #649657",
"8.	c #CCE2FC",
"9.	c #C9E0FB",
"0.	c #C8E1FB",
"a.	c #F7FAFD",
"b.	c #3B76C1",
"c.	c #407CC4",
"d.	c #E6F0F7",
"e.	c #D1E4FC",
"f.	c #C2D9E5",
"g.	c #709E68",
"h.	c #659657",
"i.	c #669759",
"j.	c #73A06C",
"k.	c #F5F9FC",
"l.	c #366FBF",
"m.	c #3C78C1",
"n.	c #E3EDF7",
"o.	c #F4F7FB",
"p.	c #3167BB",
"q.	c #3871BF",
"r.	c #DFEBF5",
"s.	c #2D64B9",
"t.	c #3369BC",
"u.	c #EAF1F8",
"v.	c #DFECF7",
"w.	c #DEEBF6",
"x.	c #DEEAF6",
"y.	c #DCEAF6",
"z.	c #EBF3FA",
"A.	c #F3F7FC",
"B.	c #F4F8FC",
"C.	c #FDFEFE",
"D.	c #2A60B7",
"E.	c #3065BA",
"F.	c #3166BB",
"G.	c #3066BA",
"H.	c #2F65BA",
"I.	c #2E65B9",
"J.	c #2E64B9",
"K.	c #2C62B7",
"    . + + + + @ # $ % &         ",
"  * = - ; > > > , = ' ) !       ",
"  ~ { ] ^ / ( _ : < [ } | 1     ",
"  2 3 4 5 6 7 8 9 0 a b c d e   ",
"f g h i j k l m n o p = q r s   ",
"f t u v i w x y z A B C D E F   ",
"  G H I J i K L M N 9 O P Q R   ",
"  S T U V W f X Y Z ] ` 9  ...  ",
"  +.@.#.$.%.&.*.=.-.;.>.,.'.).  ",
"  !.~.{.].$.^./.(.!._.:.^ <.[.  ",
"}.}.|.1.2.3.4.5.6.7.8.9.0.a.b.  ",
"  c.d.e.e.f.g.h.i.j.e.e.e.k.l.  ",
"  m.n.e.e.e.e.e.e.e.e.e.e.o.p.  ",
"  q.r.e.e.e.e.e.e.e.e.e.e.a s.  ",
"  t.u.v.w.x.y.y.z.z.'.A.B.C.D.  ",
"    E.F.G.G.G.E.H.I.I.J.J.K.    "};
