/* XPM */
static const char * loaddbf_xpm[] = {
"16 16 193 2",
"  	c None",
". 	c #4C6D9D",
"+ 	c #4B6D9D",
"@ 	c #4B6C9D",
"# 	c #4A6C9C",
"$ 	c #496B9C",
"% 	c #496A9B",
"& 	c #486A9B",
"* 	c #47699A",
"= 	c #466899",
"- 	c #456798",
"; 	c #436493",
"> 	c #3E5D84",
", 	c #7897BB",
"' 	c #6282AC",
") 	c #6181AC",
"! 	c #6080AB",
"~ 	c #5F7FAB",
"{ 	c #5E7FAA",
"] 	c #5D7EA8",
"^ 	c #5C7CA8",
"/ 	c #436697",
"( 	c #3C5C88",
"_ 	c #7897BA",
": 	c #B9C5D8",
"< 	c #D7DEE8",
"[ 	c #D6DDE7",
"} 	c #D6DCE6",
"| 	c #D4DBE4",
"1 	c #D3DAE3",
"2 	c #D1D8E2",
"3 	c #D0D7E1",
"4 	c #E5E7EB",
"5 	c #EFEFEF",
"6 	c #2A3E57",
"7 	c #4B6C9C",
"8 	c #A5C2D9",
"9 	c #7091B5",
"0 	c #5F80AB",
"a 	c #5E7EA9",
"b 	c #5C7DA8",
"c 	c #5B7CA8",
"d 	c #5A7BA7",
"e 	c #5979A6",
"f 	c #416496",
"g 	c #4A6B9C",
"h 	c #A9C8DD",
"i 	c #95BDD4",
"j 	c #B9D4E6",
"k 	c #B6D1E6",
"l 	c #B5D0E4",
"m 	c #B3CEE3",
"n 	c #B0CBE2",
"o 	c #ADC9E0",
"p 	c #A9C7DF",
"q 	c #A0BFDA",
"r 	c #4A6B9A",
"s 	c #A6C5DB",
"t 	c #76A7C6",
"u 	c #9BBFD9",
"v 	c #93B7D1",
"w 	c #8EB0CB",
"x 	c #8AAECA",
"y 	c #87ABC8",
"z 	c #83ABCB",
"A 	c #87B0D1",
"B 	c #9BBBD8",
"C 	c #486A99",
"D 	c #A4C2D9",
"E 	c #72A4C1",
"F 	c #94B8D2",
"G 	c #E4EDF5",
"H 	c #E2ECF4",
"I 	c #E1ECF4",
"J 	c #E0EBF4",
"K 	c #DFEAF3",
"L 	c #7FA9CB",
"M 	c #96B8D6",
"N 	c #476999",
"O 	c #9FBFD7",
"P 	c #6F9FBD",
"Q 	c #90B5D4",
"R 	c #88ADCB",
"S 	c #81A8C7",
"T 	c #7DA5C6",
"U 	c #7AA1C4",
"V 	c #76A1C5",
"W 	c #6CA33D",
"X 	c #659F31",
"Y 	c #476A94",
"Z 	c #9BBBD5",
"` 	c #699AB8",
" .	c #8AB3D4",
"..	c #87AFD2",
"+.	c #82ADD0",
"@.	c #7DAACF",
"#.	c #78A6CD",
"$.	c #74A4CB",
"%.	c #649F37",
"&.	c #81B35A",
"*.	c #579828",
"=.	c #2B4155",
"-.	c #456799",
";.	c #96B7D2",
">.	c #6592B4",
",.	c #83AED1",
"'.	c #7FABCF",
").	c #6FA53D",
"!.	c #6DA338",
"~.	c #67A134",
"{.	c #619D30",
"].	c #7CAF55",
"^.	c #AACB91",
"/.	c #74AB4F",
"(.	c #458E18",
"_.	c #446698",
":.	c #92B4D0",
"<.	c #608BAF",
"[.	c #7CA9CE",
"}.	c #77A6CC",
"|.	c #6BA337",
"1.	c #B0CE96",
"2.	c #ADCD94",
"3.	c #A8CB90",
"4.	c #90BC74",
"5.	c #A1C78A",
"6.	c #68A546",
"7.	c #358707",
"8.	c #436597",
"9.	c #8EB0CE",
"0.	c #5B85AA",
"a.	c #75A4CB",
"b.	c #71A2CA",
"c.	c #639F31",
"d.	c #8EBA6F",
"e.	c #89B86B",
"f.	c #85B666",
"g.	c #80B361",
"h.	c #82B567",
"i.	c #98C283",
"j.	c #5CA03C",
"k.	c #257F00",
"l.	c #88ACCB",
"m.	c #577EA6",
"n.	c #6E9FC9",
"o.	c #699DC7",
"p.	c #5B9B29",
"q.	c #A9CA90",
"r.	c #A5C88D",
"s.	c #A1C68A",
"t.	c #9EC588",
"u.	c #85B66A",
"v.	c #97C282",
"w.	c #66A548",
"x.	c #217D00",
"y.	c #406396",
"z.	c #85A9CA",
"A.	c #5478A3",
"B.	c #679AC6",
"C.	c #6298C4",
"D.	c #519722",
"E.	c #49911C",
"F.	c #438F16",
"G.	c #3B8B10",
"H.	c #5E9F3A",
"I.	c #96C180",
"J.	c #62A346",
"K.	c #207807",
"L.	c #3F6295",
"M.	c #85ABCC",
"N.	c #89AFD1",
"O.	c #88B0D2",
"P.	c #85ADD1",
"Q.	c #81AAD0",
"R.	c #7FA7CF",
"S.	c #7BA4CE",
"T.	c #7AA1CD",
"U.	c #2E8409",
"V.	c #5FA143",
"W.	c #227810",
"X.	c #1F433D",
"Y.	c #3E6194",
"Z.	c #3D6094",
"`.	c #3C6093",
" +	c #3B5F92",
".+	c #3A5E92",
"++	c #395D91",
"@+	c #385D90",
"#+	c #385C90",
"$+	c #375B8F",
"%+	c #227C06",
"&+	c #1E7B03",
"*+	c #2F5F75",
"    . + @ # $ % & * = - ; >     ",
"  . + , ' ) ! ~ { ] ^ . / (     ",
"  + _ : < [ } | 1 2 3 4 5 6     ",
"  7 8 9 0 a a b c d e $ f 6     ",
"  g h i j k l m n o p q r 6     ",
"  % s t u v w x y z A B C 6     ",
"  & D E F G H I J K L M N 6     ",
"  * O P Q R S T U V W X Y 6     ",
"  = Z `  ...+.@.#.$.%.&.*.=.    ",
"  -.;.>.,.'.).!.~.{.].^./.(.    ",
"  _.:.<.[.}.|.1.2.^.3.4.5.6.7.  ",
"  8.9.0.a.b.c.2.d.e.f.g.h.i.j.k.",
"  f l.m.n.o.p.q.r.s.t.u.v.w.x.  ",
"  y.z.A.B.C.D.E.F.G.H.I.J.K.    ",
"  L.M.N.O.P.Q.R.S.T.U.V.W.X.    ",
"  Y.Z.`. +.+++@+#+$+%+&+*+      "};
