/* XPM */
static const char * loadshp_xpm[] = {
"16 16 188 2",
"  	c None",
". 	c #6EC461",
"+ 	c #BBE1A5",
"@ 	c #CCEABA",
"# 	c #BEE0C5",
"$ 	c #B4DAC5",
"% 	c #B0D7BD",
"& 	c #ACD7A6",
"* 	c #69BE5D",
"= 	c #66BA5A",
"- 	c #A2D88C",
"; 	c #E8F5CD",
"> 	c #DAEDD4",
", 	c #D3EDCE",
"' 	c #AFDFCF",
") 	c #B5DED6",
"! 	c #A2D4D4",
"~ 	c #A1D0CE",
"{ 	c #AAD0C4",
"] 	c #91C987",
"^ 	c #5DAF53",
"/ 	c #A0D787",
"( 	c #DEF2C0",
"_ 	c #D6F2C7",
": 	c #D5EFD5",
"< 	c #CFE9D0",
"[ 	c #A6DBD5",
"} 	c #ABDEDC",
"| 	c #90CDDB",
"1 	c #8BC8D7",
"2 	c #8EC1C9",
"3 	c #AFD5BD",
"4 	c #91C77A",
"5 	c #53A34A",
"6 	c #E2F3C0",
"7 	c #B4EFB5",
"8 	c #ACF0B5",
"9 	c #B7EDC1",
"0 	c #B7E3D4",
"a 	c #9CD8D9",
"b 	c #95D3DA",
"c 	c #6DB5CD",
"d 	c #6DB3C7",
"e 	c #84CBB5",
"f 	c #9ADF94",
"g 	c #CDE7AF",
"h 	c #4D9B46",
"i 	c #B5DE98",
"j 	c #CCEBB5",
"k 	c #A7EFB1",
"l 	c #A9EEC9",
"m 	c #C9EAD1",
"n 	c #8DCFD5",
"o 	c #8BCBD9",
"p 	c #66B4CD",
"q 	c #67BCBC",
"r 	c #71D69A",
"s 	c #73DE82",
"t 	c #71DC7A",
"u 	c #A3D091",
"v 	c #A4C888",
"w 	c #438F3D",
"x 	c #D2ECB3",
"y 	c #A2E29B",
"z 	c #8DEA9D",
"A 	c #B7EDD4",
"B 	c #C7EAD0",
"C 	c #6EB9CF",
"D 	c #66B1CC",
"E 	c #75C9CB",
"F 	c #67DB76",
"G 	c #4DD966",
"H 	c #4DD765",
"I 	c #5DD36C",
"J 	c #7EBB73",
"K 	c #C2DBA5",
"L 	c #3E8839",
"M 	c #DCF0BE",
"N 	c #83D881",
"O 	c #6DDB77",
"P 	c #9AE5BF",
"Q 	c #A7DFCC",
"R 	c #5DA8CA",
"S 	c #6CBDC2",
"T 	c #8BDAB8",
"U 	c #60D8A6",
"V 	c #68A73C",
"W 	c #659F31",
"X 	c #50BC59",
"Y 	c #6CAB63",
"Z 	c #CEE4B2",
"` 	c #398235",
" .	c #6DC360",
"..	c #DDEFBE",
"+.	c #7DD173",
"@.	c #6CD190",
"#.	c #9EE0BC",
"$.	c #5EA7C7",
"%.	c #5EB0D3",
"&.	c #5399C6",
"*.	c #6EBCC6",
"=.	c #7AD1AF",
"-.	c #64A23B",
";.	c #81B35A",
">.	c #579828",
",.	c #67A35A",
"'.	c #CEE3B1",
").	c #357E31",
"!.	c #6ABF5E",
"~.	c #CFE9B0",
"{.	c #90D483",
"].	c #8ADCBF",
"^.	c #82CBC3",
"/.	c #56A2CC",
"(.	c #6FA53D",
"_.	c #6DA33A",
":.	c #67A135",
"<.	c #619D31",
"[.	c #7CAF55",
"}.	c #AACB91",
"|.	c #74AB4F",
"1.	c #468F18",
"2.	c #BCD8A1",
"3.	c #327A2F",
"4.	c #AFD792",
"5.	c #B4DEA0",
"6.	c #70C684",
"7.	c #80D0A8",
"8.	c #5CA5C5",
"9.	c #6BA337",
"0.	c #B0CE96",
"a.	c #ADCD94",
"b.	c #A8CB90",
"c.	c #90BC74",
"d.	c #A1C78A",
"e.	c #68A546",
"f.	c #378809",
"g.	c #D3EAB5",
"h.	c #74BC69",
"i.	c #71BD6E",
"j.	c #6DB6BE",
"k.	c #639F31",
"l.	c #8EBA6F",
"m.	c #89B86B",
"n.	c #85B666",
"o.	c #80B361",
"p.	c #82B567",
"q.	c #98C283",
"r.	c #5CA03C",
"s.	c #257F00",
"t.	c #57A84E",
"u.	c #8DC076",
"v.	c #B3D799",
"w.	c #80C079",
"x.	c #7EC2BC",
"y.	c #5B9B29",
"z.	c #A9CA90",
"A.	c #A5C88D",
"B.	c #A1C68A",
"C.	c #9EC588",
"D.	c #85B66A",
"E.	c #97C282",
"F.	c #66A548",
"G.	c #237D06",
"H.	c #86B770",
"I.	c #C7E8AE",
"J.	c #A0D2C0",
"K.	c #519722",
"L.	c #49911C",
"M.	c #438F16",
"N.	c #3B8B10",
"O.	c #5E9F3A",
"P.	c #96C180",
"Q.	c #62A346",
"R.	c #227D07",
"S.	c #3F8A3A",
"T.	c #9DC59B",
"U.	c #9DC2B3",
"V.	c #9CC1BD",
"W.	c #9DC3BE",
"X.	c #B1D2B0",
"Y.	c #34880B",
"Z.	c #5FA143",
"`.	c #227B07",
" +	c #378033",
".+	c #347D31",
"++	c #227D03",
"@+	c #1E7B03",
"          . . . . . .           ",
"      . . + @ # $ % & * =       ",
"    . - ; > , ' ) ! ~ { ] ^     ",
"  . / ( _ : < [ } | 1 2 3 4 5   ",
"  . 6 7 8 9 0 a b c d e f g h   ",
". i j k l m n o p q r s t u v w ",
". x y z A B C D E F G H I J K L ",
". M N O P Q R S T U V W X Y Z ` ",
" ...+.@.#.$.%.&.*.=.-.;.>.,.'.).",
"!.~.{.].^./.(._.:.<.[.}.|.1.2.3.",
"= 4.5.6.7.8.9.0.a.}.b.c.d.e.f.3.",
"  ^ g.h.i.j.k.a.l.m.n.o.p.q.r.s.",
"  t.u.v.w.x.y.z.A.B.C.D.E.F.G.  ",
"    h H.I.J.K.L.M.N.O.P.Q.R.    ",
"      w S.T.U.V.W.X.Y.Z.`.      ",
"           +.+3.3.3.++@+        "};
