/* XPM */
static const char * loadxml_xpm[] = {
"16 16 64 1",
" 	g None",
".	g #767676",
"+	g #747474",
"@	g #707070",
"#	g #6C6C6C",
"$	g #686868",
"%	g #636363",
"&	g #5E5E5E",
"*	g #595959",
"=	g #535353",
"-	g #4E4E4E",
";	g #484848",
">	g #424242",
",	g #6F6F6F",
"'	g #6B6B6B",
")	g #666666",
"!	g #616161",
"~	g #5C5C5C",
"{	g #575757",
"]	g #515151",
"^	g #4B4B4B",
"/	g #454545",
"(	g #646464",
"_	g #5F5F5F",
":	g #5A5A5A",
"<	g #545454",
"[	g #4F4F4F",
"}	g #494949",
"|	g #434343",
"1	g #3D3D3D",
"2	g #373737",
"3	g #313131",
"4	g #2B2B2B",
"5	g #252525",
"6	g #585858",
"7	g #525252",
"8	g #4C4C4C",
"9	g #464646",
"0	g #404040",
"a	g #3A3A3A",
"b	g #343434",
"c	g #2E2E2E",
"d	g #282828",
"e	g #4A4A4A",
"f	g #444444",
"g	g #3E3E3E",
"h	g #383838",
"i	g #323232",
"j	g #2C2C2C",
"k	g #262626",
"l	g #202020",
"m	g #1B1B1B",
"n	g #161616",
"o	g #111111",
"p	g #0C0C0C",
"q	g #3C3C3C",
"r	g #353535",
"s	g #2F2F2F",
"t	g #292929",
"u	g #242424",
"v	g #1E1E1E",
"w	g #191919",
"x	g #141414",
"y	g #0F0F0F",
"                ",
"                ",
"                ",
"  .+@#$%&*=-;>  ",
"                ",
"  ,')!~{]^/     ",
"                ",
"  (_:<[}|12345  ",
"                ",
"  67890abcd     ",
"                ",
"  efghijklmnop  ",
"                ",
"  qrstuvwxy     ",
"                ",
"                "};
