/* XPM */
static const char * loadtxt_xpm[] = {
"16 16 182 2",
"  	c None",
". 	c #4D8BC8",
"+ 	c #4F8CC8",
"@ 	c #4F8DC8",
"# 	c #4F8CC9",
"$ 	c #4F8BC7",
"% 	c #4B89C5",
"& 	c #3B76C4",
"* 	c #4985C4",
"= 	c #ECF2F7",
"- 	c #EEF4F8",
"; 	c #EDF4F8",
"> 	c #EDF3F8",
", 	c #ECF2F8",
"' 	c #D7E6F2",
") 	c #7DB2E2",
"! 	c #6594DB",
"~ 	c #4B88C5",
"{ 	c #F2F6FA",
"] 	c #C7E0FA",
"^ 	c #C9E1FB",
"/ 	c #C9E2FB",
"( 	c #C8E0FB",
"_ 	c #C5DFF9",
": 	c #C1DBF8",
"< 	c #B8D6F4",
"[ 	c #F8FBFF",
"} 	c #B4D8F6",
"| 	c #7DB0E1",
"1 	c #6492DB",
"2 	c #4C89C6",
"3 	c #F1F5F9",
"4 	c #CDE3FC",
"5 	c #CEE3FB",
"6 	c #CDE3FB",
"7 	c #CBE2FB",
"8 	c #C8E0F9",
"9 	c #C2DCF8",
"0 	c #BAD6F5",
"a 	c #F8FBFD",
"b 	c #CDE6FC",
"c 	c #C9E5FA",
"d 	c #84B6E2",
"e 	c #4279BF",
"f 	c #4B89C6",
"g 	c #CFE3FC",
"h 	c #D0E4FB",
"i 	c #CFE4FC",
"j 	c #CAE1FA",
"k 	c #C4DDF9",
"l 	c #BCD9F6",
"m 	c #DFE9F4",
"n 	c #F3F7FB",
"o 	c #E9EFF5",
"p 	c #457EC2",
"q 	c #F0F4F9",
"r 	c #D3E6FC",
"s 	c #D4E6FC",
"t 	c #D3E7FD",
"u 	c #D1E4FC",
"v 	c #C8E0FA",
"w 	c #BBD6F5",
"x 	c #B5D4F3",
"y 	c #B3D2F1",
"z 	c #F0F4F8",
"A 	c #4682C4",
"B 	c #4A88C6",
"C 	c #EFF4F9",
"D 	c #D7E7FE",
"E 	c #D6E7FD",
"F 	c #D5E7FD",
"G 	c #D4E6FD",
"H 	c #D2E6FC",
"I 	c #CCE1FB",
"J 	c #C7DFFA",
"K 	c #BDDAF6",
"L 	c #BBD8F6",
"M 	c #EFF4FA",
"N 	c #4683C6",
"O 	c #4988C6",
"P 	c #EDF4F9",
"Q 	c #D8E8FE",
"R 	c #D7E8FE",
"S 	c #D6E7FE",
"T 	c #D3E5FD",
"U 	c #72A846",
"V 	c #659F31",
"W 	c #EDF4FA",
"X 	c #4582C6",
"Y 	c #4784C6",
"Z 	c #ECF3F9",
"` 	c #D6E8FE",
" .	c #6BA441",
"..	c #81B35A",
"+.	c #579828",
"@.	c #EAF2FA",
"#.	c #4280C6",
"$.	c #4582C5",
"%.	c #EBF2F8",
"&.	c #6FA53D",
"*.	c #6FA43A",
"=.	c #69A236",
"-.	c #639E32",
";.	c #7CAF55",
">.	c #AACB91",
",.	c #74AB4F",
"'.	c #48911B",
").	c #3F7CC4",
"!.	c #4280C5",
"~.	c #E8F1F8",
"{.	c #D5E5FE",
"].	c #6BA337",
"^.	c #B0CE96",
"/.	c #ADCD94",
"(.	c #A8CB90",
"_.	c #90BC74",
":.	c #A1C78A",
"<.	c #68A546",
"[.	c #35870A",
"}.	c #407CC4",
"|.	c #E6F0F7",
"1.	c #55B4F8",
"2.	c #56B4F7",
"3.	c #54B5F7",
"4.	c #639F31",
"5.	c #8EBA6F",
"6.	c #89B86B",
"7.	c #85B666",
"8.	c #80B361",
"9.	c #82B567",
"0.	c #98C283",
"a.	c #5CA03C",
"b.	c #257F00",
"c.	c #3C78C1",
"d.	c #E3EDF7",
"e.	c #6EC2FD",
"f.	c #A0D8FF",
"g.	c #9ED7FF",
"h.	c #5B9B29",
"i.	c #A9CA90",
"j.	c #A5C88D",
"k.	c #A1C68A",
"l.	c #9EC588",
"m.	c #85B66A",
"n.	c #97C282",
"o.	c #66A548",
"p.	c #237A1D",
"q.	c #3871BF",
"r.	c #DFEBF5",
"s.	c #68BFFD",
"t.	c #67BDFC",
"u.	c #65BEFB",
"v.	c #519723",
"w.	c #49911D",
"x.	c #438F17",
"y.	c #3B8B11",
"z.	c #5E9F3A",
"A.	c #96C180",
"B.	c #62A346",
"C.	c #46942E",
"D.	c #2C65B4",
"E.	c #3369BC",
"F.	c #EAF1F8",
"G.	c #DFECF7",
"H.	c #DEEBF6",
"I.	c #DEEAF6",
"J.	c #DCEAF6",
"K.	c #EBF3FA",
"L.	c #3A8C15",
"M.	c #5FA143",
"N.	c #4A9432",
"O.	c #F8FBF8",
"P.	c #2A60B7",
"Q.	c #3065BA",
"R.	c #3166BB",
"S.	c #3066BA",
"T.	c #2F65BA",
"U.	c #2E65B9",
"V.	c #227B0E",
"W.	c #1E7B03",
"X.	c #2E64B6",
"Y.	c #2C62B7",
"    . + + + + @ # $ % &         ",
"  * = - ; > > > , = ' ) !       ",
"  ~ { ] ^ / ( _ : < [ } | 1     ",
"  2 3 4 5 6 7 8 9 0 a b c d e   ",
"  f 3 g h i 4 j k l m = n o p   ",
"  f q r s t u 6 v 9 w x y z A   ",
"  B C D E F G H I J 9 K L M N   ",
"  O P Q Q R S T u I U V 9 W X   ",
"  Y Z ` R E E F T h  ...+.@.#.  ",
"  $.%.S E E &.*.=.-.;.>.,.'.).  ",
"  !.~.{.T T ].^./.>.(._.:.<.[.  ",
"  }.|.1.2.3.4./.5.6.7.8.9.0.a.b.",
"  c.d.e.f.g.h.i.j.k.l.m.n.o.p.  ",
"  q.r.s.t.u.v.w.x.y.z.A.B.C.D.  ",
"  E.F.G.H.I.J.J.K.K.L.M.N.O.P.  ",
"    Q.R.S.S.S.Q.T.U.V.W.X.Y.    "};
