/* XPM */
static const char * malformed_geoms_xpm[] = {
"16 16 113 2",
"  	c None",
". 	c #EBBC3C",
"+ 	c #EABA3A",
"@ 	c #F1D485",
"# 	c #F0D182",
"$ 	c #E9BA3A",
"% 	c #FDFAF1",
"& 	c #FAEFD5",
"* 	c #E6B235",
"= 	c #E9B93A",
"- 	c #F2D894",
"; 	c #FEFCF3",
"> 	c #FEFAE7",
", 	c #F0D38F",
"' 	c #E3AC31",
") 	c #E8B738",
"! 	c #FFFDF9",
"~ 	c #F9E994",
"{ 	c #FAEB9E",
"] 	c #FEFAEC",
"^ 	c #E1A92F",
"/ 	c #F4DFA9",
"( 	c #FDF9ED",
"_ 	c #D6A33E",
": 	c #FCF5D4",
"< 	c #F1D7A2",
"[ 	c #DEA32B",
"} 	c #EDC871",
"| 	c #FFFEF9",
"1 	c #F4DC5E",
"2 	c #D5A23E",
"3 	c #F4D95C",
"4 	c #FEFBED",
"5 	c #E5BB68",
"6 	c #E6B436",
"7 	c #F7EAC8",
"8 	c #FDFAE6",
"9 	c #F4DA5D",
"0 	c #D5A13D",
"a 	c #F2D757",
"b 	c #FCF3C7",
"c 	c #F4E3C0",
"d 	c #D99924",
"e 	c #E6B336",
"f 	c #F0D28C",
"g 	c #FEFBEA",
"h 	c #F8E694",
"i 	c #F4DA5C",
"j 	c #DDB147",
"k 	c #F2D756",
"l 	c #F5DB5C",
"m 	c #FDF8DE",
"n 	c #E7C07D",
"o 	c #D48E1D",
"p 	c #E5B134",
"q 	c #FEFBF3",
"r 	c #FBF2C3",
"s 	c #F6DC5C",
"t 	c #F6DF64",
"u 	c #EBCB57",
"v 	c #F2D655",
"w 	c #F5D954",
"x 	c #F8E794",
"y 	c #FBF4E3",
"z 	c #D08717",
"A 	c #E5B034",
"B 	c #F1D79D",
"C 	c #FDF9E7",
"D 	c #F8E58B",
"E 	c #F6DB5A",
"F 	c #F4DA5B",
"G 	c #F2D654",
"H 	c #F5D852",
"I 	c #F4D650",
"J 	c #FCF6D8",
"K 	c #E5BF88",
"L 	c #C9790E",
"M 	c #E8BF62",
"N 	c #FEFCF4",
"O 	c #FAEFB5",
"P 	c #F5DA58",
"Q 	c #F3D857",
"R 	c #F2D758",
"S 	c #F2D658",
"T 	c #F4D957",
"U 	c #F5D851",
"V 	c #F4D74E",
"W 	c #F6DA62",
"X 	c #D29344",
"Y 	c #E3AD31",
"Z 	c #F5E3BE",
"` 	c #FEFBEF",
" .	c #FEFBEE",
"..	c #FEFCEF",
"+.	c #FEFBEC",
"@.	c #FEFCF2",
"#.	c #EBCEAB",
"$.	c #C16803",
"%.	c #E2AA2F",
"&.	c #E0A72D",
"*.	c #DFA42B",
"=.	c #DDA129",
"-.	c #DC9E27",
";.	c #DA9B25",
">.	c #D99823",
",.	c #D69320",
"'.	c #D38C1B",
").	c #CF8516",
"!.	c #CC7E11",
"~.	c #C9770D",
"{.	c #C67109",
"].	c #C36C06",
"^.	c #BF6400",
"                                ",
"              . +               ",
"            . @ #               ",
"            $ % & *             ",
"          = - ; > , '           ",
"          ) ! ~ { ] ^           ",
"        ) / ( _ _ : < [         ",
"        } | 1 2 2 3 4 5         ",
"      6 7 8 9 0 0 a b c d       ",
"    e f g h i j 0 k l m n o     ",
"    p q r s i t u v w x y z     ",
"  A B C D E F 0 0 G H I J K L   ",
"  M N O P P Q R S T U V W g X   ",
"Y Z N `  . .....`  .4 4 +.@.#.$.",
"%.&.*.=.-.;.>.,.'.).!.~.{.].$.^.",
"                                "};
