/* XPM */
static const char * memdb_clock_xpm[] = {
"16 16 158 2",
"  	c None",
". 	c #C6AB7E",
"+ 	c #CDB378",
"@ 	c #D0B87B",
"# 	c #CDB47A",
"$ 	c #C4A971",
"% 	c #B99D71",
"& 	c #C2AA86",
"* 	c #D2BA78",
"= 	c #E3D9C8",
"- 	c #EAE7DD",
"; 	c #F1F1EE",
"> 	c #F0F0EC",
", 	c #E4E0D2",
"' 	c #D2C4A8",
") 	c #B89C67",
"! 	c #C0A885",
"~ 	c #DCCC97",
"{ 	c #EEEBE1",
"] 	c #D9E1EE",
"^ 	c #ACBEDF",
"/ 	c #96ADD5",
"( 	c #92AAD4",
"_ 	c #A3B7DC",
": 	c #CEDAE8",
"< 	c #DFD9C6",
"[ 	c #B69B68",
"} 	c #CCB374",
"| 	c #ECE9DF",
"1 	c #C2CFE6",
"2 	c #AEBFDF",
"3 	c #DCE3F1",
"4 	c #ECF1F3",
"5 	c #EBF1F4",
"6 	c #D9E2F1",
"7 	c #A3BADC",
"8 	c #AFC1DE",
"9 	c #D8CFB7",
"0 	c #A48358",
"a 	c #BCA177",
"b 	c #DBCFB7",
"c 	c #D7E0ED",
"d 	c #AABDDE",
"e 	c #FFFFFF",
"f 	c #EEF0F0",
"g 	c #DAE5E7",
"h 	c #F7FFFF",
"i 	c #F3FEFF",
"j 	c #98B4DC",
"k 	c #C4D1E1",
"l 	c #BBA473",
"m 	c #987C59",
"n 	c #BEA26D",
"o 	c #E6E1D3",
"p 	c #A4B9DB",
"q 	c #D6E3F1",
"r 	c #F5FBFE",
"s 	c #F3F5F5",
"t 	c #959E9F",
"u 	c #E9F0F0",
"v 	c #F2F8F8",
"w 	c #ADB9BE",
"x 	c #C2DAF0",
"y 	c #8BA7D1",
"z 	c #D3CAA9",
"A 	c #9B7B53",
"B 	c #BDA16C",
"C 	c #EEECE4",
"D 	c #8AA5D1",
"E 	c #E9F6FA",
"F 	c #EEF8FD",
"G 	c #F9FFFF",
"H 	c #798081",
"I 	c #A4AEB1",
"J 	c #777F81",
"K 	c #BAC6C9",
"L 	c #D3F0FA",
"M 	c #7295C9",
"N 	c #E2DFC9",
"O 	c #9E7B54",
"P 	c #B89A67",
"Q 	c #ECEADD",
"R 	c #819FCF",
"S 	c #E2F3FA",
"T 	c #E9F6FD",
"U 	c #E3F0F2",
"V 	c #848C8D",
"W 	c #C2CFD2",
"X 	c #EBFBFF",
"Y 	c #CCECFA",
"Z 	c #6D90C7",
"` 	c #E1DDC1",
" .	c #9D7953",
"..	c #AD8E5E",
"+.	c #DDD3B7",
"@.	c #90AAD1",
"#.	c #C1DBF0",
"$.	c #E6F7FF",
"%.	c #E3F2FA",
"&.	c #B6C0C5",
"*.	c #DEEDF1",
"=.	c #E8FCFF",
"-.	c #A9C6AE",
";.	c #719760",
">.	c #668E4F",
",.	c #5F8744",
"'.	c #6E773E",
").	c #A0855E",
"!.	c #C0A978",
"~.	c #C6D1DA",
"{.	c #88AAD9",
"].	c #EBFEFF",
"^.	c #EEFAFF",
"/.	c #F2FDFF",
"(.	c #F2FEFF",
"_.	c #ABC5A8",
":.	c #81AB61",
"<.	c #B4D495",
"[.	c #D0E6BA",
"}.	c #8FBB6A",
"|.	c #578F2D",
"1.	c #376B19",
"2.	c #A28257",
"3.	c #D8CCA2",
"4.	c #A5B7CD",
"5.	c #89AAD8",
"6.	c #CFDFEF",
"7.	c #F3F6FA",
"8.	c #F3F5FA",
"9.	c #618A49",
"0.	c #B1D390",
"a.	c #B1D692",
"b.	c #8CBC65",
"c.	c #8FBC67",
"d.	c #A68855",
"e.	c #D6C896",
"f.	c #BFCACC",
"g.	c #869FC8",
"h.	c #7692C5",
"i.	c #7390C4",
"j.	c #4C7B31",
"k.	c #B6D49C",
"l.	c #B2D295",
"m.	c #9A7850",
"n.	c #B1975A",
"o.	c #CEBD85",
"p.	c #DED6A4",
"q.	c #DED5A0",
"r.	c #3E6E1E",
"s.	c #8BBA62",
"t.	c #87BA60",
"u.	c #87B960",
"v.	c #917553",
"w.	c #93724E",
"x.	c #97744D",
"y.	c #606E31",
"z.	c #538C28",
"A.	c #8DBA64",
"                                ",
"          . + @ # $ %           ",
"      & * = - ; > , ' )         ",
"    ! ~ { ] ^ / ( _ : < [       ",
"    } | 1 2 3 4 5 6 7 8 9 0     ",
"  a b c d e f g h h i j k l m   ",
"  n o p q r s t u v w x y z A   ",
"  B C D E F G H I J K L M N O   ",
"  P Q R S T U V J W X Y Z `  .  ",
"  ..+.@.#.$.%.&.*.=.-.;.>.,.'.  ",
"  ).!.~.{.].^./.(._.:.<.[.}.|.1.",
"    2.3.4.5.6.7.8.9.0.a.e b.c.1.",
"      d.e.f.g.h.i.j.k.e e e l.1.",
"        m.n.o.p.q.r.s.t.e u.c.1.",
"          v.w.x.x.y.z.A.l.A.z.1.",
"                    1.1.1.1.1.  "};
