/* XPM */
static const char * memdb_new_xpm[] = {
"16 16 137 2",
"  	c None",
". 	c #BABABA",
"+ 	c #B8B8B8",
"@ 	c #B7B7B7",
"# 	c #B6B6B6",
"$ 	c #B4B4B4",
"% 	c #B3B3B3",
"& 	c #BBBBBB",
"* 	c #D0D0D0",
"= 	c #E8E8E8",
"- 	c #F3F3F3",
"; 	c #FDFDFD",
"> 	c #FCFCFC",
", 	c #EDEDED",
"' 	c #E0E0E0",
") 	c #C2C2C2",
"! 	c #ADADAD",
"~ 	c #E1E1E1",
"{ 	c #FEFEFE",
"] 	c #FFFFFF",
"^ 	c #FBFBFB",
"/ 	c #CFCFCF",
"( 	c #A9A9A9",
"_ 	c #EAC93D",
": 	c #E2C54C",
"< 	c #EACC55",
"[ 	c #EACA55",
"} 	c #E9C753",
"| 	c #E7C34E",
"1 	c #E8C559",
"2 	c #FCF7E8",
"3 	c #EAEAEA",
"4 	c #A7A7A7",
"5 	c #F3DC73",
"6 	c #F6E289",
"7 	c #F4DE84",
"8 	c #F3D981",
"9 	c #F1D378",
"0 	c #E8C14F",
"a 	c #F0DFAF",
"b 	c #F8F7F6",
"c 	c #E7E7E7",
"d 	c #D8D8D8",
"e 	c #C7C7C7",
"f 	c #E6E6E6",
"g 	c #A5A5A5",
"h 	c #E8C63B",
"i 	c #F8E793",
"j 	c #F4D85F",
"k 	c #F6E090",
"l 	c #F2D57C",
"m 	c #E9C352",
"n 	c #CFBD89",
"o 	c #CCCCCC",
"p 	c #C9C9C9",
"q 	c #B5B5B5",
"r 	c #C1C1C1",
"s 	c #E5E5E5",
"t 	c #A3A3A3",
"u 	c #E8C63A",
"v 	c #F1D86A",
"w 	c #F8E796",
"x 	c #F2CF47",
"y 	c #F4DC89",
"z 	c #E2B837",
"A 	c #E3D098",
"B 	c #E2E2E2",
"C 	c #CDCDCD",
"D 	c #E3E3E3",
"E 	c #A0A0A0",
"F 	c #E7C338",
"G 	c #F8E68F",
"H 	c #F7E38D",
"I 	c #F2D260",
"J 	c #F4D784",
"K 	c #E1B63A",
"L 	c #E0C47B",
"M 	c #DDC27D",
"N 	c #DFC179",
"O 	c #DCC183",
"P 	c #CBC4B6",
"Q 	c #BDBDBD",
"R 	c #BFBFBF",
"S 	c #9E9E9E",
"T 	c #E7C238",
"U 	c #F0D76D",
"V 	c #EFD267",
"W 	c #EDCF66",
"X 	c #F3D984",
"Y 	c #F4D788",
"Z 	c #F1CF7D",
"` 	c #E8BD58",
" .	c #E6B852",
"..	c #DAA425",
"+.	c #D9C393",
"@.	c #C5C2BD",
"#.	c #9B9B9B",
"$.	c #E4BC34",
"%.	c #E3B831",
"&.	c #E1B52F",
"*.	c #DCB137",
"=.	c #F0D07D",
"-.	c #EDC76D",
";.	c #E3B345",
">.	c #D8B567",
",.	c #DBD3C3",
"'.	c #C0C0C0",
").	c #969696",
"!.	c #DCAD2F",
"~.	c #E7BC52",
"{.	c #DBAC39",
"].	c #D6C192",
"^.	c #D2D2D2",
"/.	c #DBDBDB",
"(.	c #D6D6D6",
"_.	c #B0B0B0",
":.	c #DEDEDE",
"<.	c #909090",
"[.	c #DEAD2A",
"}.	c #E4B644",
"|.	c #DCB863",
"1.	c #F1EEE6",
"2.	c #C4C4C4",
"3.	c #8B8B8B",
"4.	c #DCA927",
"5.	c #C7A657",
"6.	c #CECECE",
"7.	c #F4F4F4",
"8.	c #F5F5F5",
"9.	c #EFEFEF",
"0.	c #8A8A8A",
"a.	c #A1A1A1",
"b.	c #9F9F9F",
"c.	c #ABABAB",
"d.	c #959595",
"e.	c #8D8D8D",
"f.	c #898989",
"                                ",
"              . + @ # $ %       ",
"          & * = - ; > , ' ) !   ",
"        . ~ { ] ] ] ] ] ] ^ / ( ",
"      _ : < [ } | 1 2 ] ] ^ 3 4 ",
"    _ 5 6 7 8 9 0 a b c d e f g ",
"    h i j k l m n o p q @ r s t ",
"  u v w x y z A B f ~ C ) ) D E ",
"  F G H I J K L M N O P Q R B S ",
"T U V W X Y Z `  ...+.@.+ & ~ #.",
"  $.%.&.*.=.-.;.>.,.d '.% @ ' ).",
"        !.~.{.].^./.(.R _.% :.<.",
"      [.}.|.1./.^./.(.'.p f 2.3.",
"      4.5.g 6., 7.8.7.9.B . 0.  ",
"            a.b.a.c.4 d.e.f.    ",
"                                "};
