/* XPM */
static const char * memdb_load_xpm[] = {
"16 16 121 2",
"  	c None",
". 	c #BABABA",
"+ 	c #B8B8B8",
"@ 	c #B7B7B7",
"# 	c #B6B6B6",
"$ 	c #B4B4B4",
"% 	c #B3B3B3",
"& 	c #BBBBBB",
"* 	c #D0D0D0",
"= 	c #E8E8E8",
"- 	c #F3F3F3",
"; 	c #FDFDFD",
"> 	c #FCFCFC",
", 	c #EDEDED",
"' 	c #E0E0E0",
") 	c #C2C2C2",
"! 	c #ADADAD",
"~ 	c #E1E1E1",
"{ 	c #FEFEFE",
"] 	c #FFFFFF",
"^ 	c #FBFBFB",
"/ 	c #CFCFCF",
"( 	c #A9A9A9",
"_ 	c #B9B9B9",
": 	c #F8F8F8",
"< 	c #EAEAEA",
"[ 	c #A7A7A7",
"} 	c #F7F7F7",
"| 	c #E7E7E7",
"1 	c #EFEFEF",
"2 	c #F6F6F6",
"3 	c #FAFAFA",
"4 	c #F0F0F0",
"5 	c #DEDEDE",
"6 	c #C3C3C3",
"7 	c #E6E6E6",
"8 	c #A5A5A5",
"9 	c #B5B5B5",
"0 	c #EBEBEB",
"a 	c #D6D6D6",
"b 	c #D5D5D5",
"c 	c #D1D1D1",
"d 	c #BCBCBC",
"e 	c #C0C0C0",
"f 	c #E5E5E5",
"g 	c #A3A3A3",
"h 	c #F5F5F5",
"i 	c #EEEEEE",
"j 	c #E2E2E2",
"k 	c #CDCDCD",
"l 	c #6EA43C",
"m 	c #659F31",
"n 	c #DEE1DD",
"o 	c #A0A0A0",
"p 	c #B2B2B2",
"q 	c #F4F4F4",
"r 	c #DDDDDD",
"s 	c #E3E3E3",
"t 	c #C9C9C9",
"u 	c #67A036",
"v 	c #81B35A",
"w 	c #579828",
"x 	c #9B9E99",
"y 	c #B0B0B0",
"z 	c #6FA53D",
"A 	c #6EA338",
"B 	c #68A134",
"C 	c #629D30",
"D 	c #7CAF55",
"E 	c #AACB91",
"F 	c #74AB4F",
"G 	c #468F18",
"H 	c #AEAEAE",
"I 	c #F2F2F2",
"J 	c #D8D8D8",
"K 	c #6BA337",
"L 	c #B0CE96",
"M 	c #ADCD94",
"N 	c #A8CB90",
"O 	c #90BC74",
"P 	c #A1C78A",
"Q 	c #68A546",
"R 	c #358707",
"S 	c #ACACAC",
"T 	c #D4D4D4",
"U 	c #639F31",
"V 	c #8EBA6F",
"W 	c #89B86B",
"X 	c #85B666",
"Y 	c #80B361",
"Z 	c #82B567",
"` 	c #98C283",
" .	c #5CA03C",
"..	c #257F00",
"+.	c #DBDBDB",
"@.	c #5B9B29",
"#.	c #A9CA90",
"$.	c #A5C88D",
"%.	c #A1C68A",
"&.	c #9EC588",
"*.	c #85B66A",
"=.	c #97C282",
"-.	c #66A548",
";.	c #217D00",
">.	c #CECECE",
",.	c #529722",
"'.	c #4A911C",
").	c #448F16",
"!.	c #3C8B10",
"~.	c #5E9F3A",
"{.	c #96C180",
"].	c #62A346",
"^.	c #217D03",
"/.	c #A1A1A1",
"(.	c #9F9F9F",
"_.	c #ABABAB",
":.	c #959595",
"<.	c #2E8306",
"[.	c #5FA143",
"}.	c #207B01",
"|.	c #1E7B03",
"                                ",
"          . + @ # $ %           ",
"      & * = - ; > , ' ) !       ",
"    . ~ { ] ] ] ] ] ] ^ / (     ",
"    _ : { ] ] ] ] ] ] ^ < [     ",
"    @ } | 1 2 ^ 3 4 5 6 7 8     ",
"    9 2 0 5 a b c 6 d e f g     ",
"    $ h i 7 j 7 ~ k l m n o     ",
"    p q < ~ r s 5 t u v w x     ",
"    y - | r z A B C D E F G     ",
"    H I j J K L M E N O P Q R   ",
"    S 4 5 T U M V W X Y Z `  ...",
"    ( 5 - +.@.#.$.%.&.*.=.-.;.  ",
"      8 >., ,.'.).!.~.{.].^.    ",
"        /.(./._.[ :.<.[.}.      ",
"                    ;.|.        "};
