/* XPM */
static const char * primary_key_xpm[] = {
"16 16 140 2",
"  	c None",
". 	c #A2C1EF",
"+ 	c #9FC0ED",
"@ 	c #9DBEEB",
"# 	c #9ABCEB",
"$ 	c #96BAE9",
"% 	c #93B7E7",
"& 	c #90B5E6",
"* 	c #8CB2E4",
"= 	c #88AFE2",
"- 	c #84ACE0",
"; 	c #80A9DD",
"> 	c #7DA5DC",
", 	c #7AA3DA",
"' 	c #A1C1EE",
") 	c #F4F7FB",
"! 	c #74A0D7",
"~ 	c #9EBFEC",
"{ 	c #A5D59C",
"] 	c #A1D398",
"^ 	c #9DD094",
"/ 	c #98CE90",
"( 	c #93CB8B",
"_ 	c #8EC987",
": 	c #89C682",
"< 	c #84C37E",
"[ 	c #80C17A",
"} 	c #7CBE76",
"| 	c #6F9BD4",
"1 	c #9BBDEB",
"2 	c #FFFFFF",
"3 	c #6A97D1",
"4 	c #98BAE9",
"5 	c #A6C3E9",
"6 	c #6493CE",
"7 	c #94B7E7",
"8 	c #A9C4E8",
"9 	c #ACC7E8",
"0 	c #EBF1F7",
"a 	c #5F8FCB",
"b 	c #8FB4E5",
"c 	c #F2F6FA",
"d 	c #AAC6E9",
"e 	c #ACC6E9",
"f 	c #ACC7EA",
"g 	c #ADC7E9",
"h 	c #AEC9E9",
"i 	c #B0C9E9",
"j 	c #B0C8E7",
"k 	c #C9B186",
"l 	c #E0B769",
"m 	c #8B8F8B",
"n 	c #8CB1E3",
"o 	c #F1F6FA",
"p 	c #AEC9EA",
"q 	c #B0C9EA",
"r 	c #EECFA1",
"s 	c #ECC96F",
"t 	c #FBF3C9",
"u 	c #DDB65F",
"v 	c #87AEE1",
"w 	c #F0F4FA",
"x 	c #B2CBEA",
"y 	c #B3CCEA",
"z 	c #B7CEEA",
"A 	c #BEB39E",
"B 	c #EAC15E",
"C 	c #FBF0A3",
"D 	c #F0D480",
"E 	c #ECC77E",
"F 	c #DDA350",
"G 	c #82AADF",
"H 	c #EFF3F9",
"I 	c #BBD0EB",
"J 	c #BACFEA",
"K 	c #E4BC77",
"L 	c #F9EEA9",
"M 	c #F8E67E",
"N 	c #F8E89A",
"O 	c #F0D17E",
"P 	c #F6E280",
"Q 	c #D9983F",
"R 	c #7EA8DD",
"S 	c #BAD0EB",
"T 	c #BDD1EB",
"U 	c #B5CDEA",
"V 	c #C8B28A",
"W 	c #F4DD89",
"X 	c #F6E06A",
"Y 	c #F7E273",
"Z 	c #F6DF5F",
"` 	c #F6DA55",
" .	c #CD7F38",
"..	c #7AA4D9",
"+.	c #EEF3F9",
"@.	c #BED2EB",
"#.	c #BFD3EB",
"$.	c #F7E9D4",
"%.	c #D6B068",
"&.	c #E8C167",
"*.	c #F2D95E",
"=.	c #F6DB4E",
"-.	c #F7DD5B",
";.	c #F5D855",
">.	c #CD802E",
",.	c #75A1D7",
"'.	c #EDF2F8",
").	c #EAF0F7",
"!.	c #E6EDF6",
"~.	c #E2EAF4",
"{.	c #DEE7F3",
"].	c #DBC9AB",
"^.	c #DCAB5D",
"/.	c #F6E299",
"(.	c #F5DC53",
"_.	c #F6D946",
":.	c #CD943F",
"<.	c #D08C46",
"[.	c #C78543",
"}.	c #729ED6",
"|.	c #6E99D3",
"1.	c #6896D1",
"2.	c #6392CE",
"3.	c #5E8ECB",
"4.	c #5B8AC9",
"5.	c #C7A460",
"6.	c #F8E6A1",
"7.	c #F2D238",
"8.	c #F6D647",
"9.	c #C89340",
"0.	c #6D7486",
"a.	c #5782BA",
"b.	c #4B75B0",
"c.	c #E3AE48",
"d.	c #F9E986",
"e.	c #F5D94D",
"f.	c #CC923A",
"g.	c #C98D34",
"h.	c #D59F45",
"i.	c #CB8D3A",
"  . + @ # $ % & * = - ; > ,     ",
"' ) ) ) ) ) ) ) ) ) ) ) ) !     ",
"~ ) { ] ^ / ( _ : < [ } ) |     ",
"1 ) 2 2 2 2 2 2 2 2 2 2 ) 3     ",
"4 ) 5 5 5 5 5 5 5 5 5 5 ) 6     ",
"7 ) 5 2 8 2 2 2 9 2 2 2 0 a     ",
"b c d e f g h i 9 i j k l m     ",
"n o p 2 q 2 2 2 9 2 r s t u     ",
"v w x y y y y z 9 A B C D E F   ",
"G H z 2 I 2 2 2 J K L M N O P Q ",
"R H S I I I I T U V W X Y Z `  .",
"..+.@.2 #.2 2 $.%.&.*.=.-.;.>.  ",
",.'.).!.~.{.].^./.(._.:.<.[.    ",
"}.|.1.2.3.4.5.6.7.8.9.0.a.b.    ",
"            c.d.e.f.            ",
"            g.h.i.              "};
