/* XPM */
static const char * refresh_xpm[] = {
"16 16 32 1",
" 	c None",
".	c #95C6D8",
"+	c #95DAF9",
"@	c #92CEE4",
"#	c #286B96",
"$	c #40B2E1",
"%	c #367592",
"&	c #256FA4",
"*	c #2374B6",
"=	c #BBE8F5",
"-	c #2379C5",
";	c #377896",
">	c #B7E1EE",
",	c #247DCE",
"'	c #8DD2F8",
")	c #41B3EC",
"!	c #90C9E1",
"~	c #3682AE",
"{	c #89ABBC",
"]	c #2F729B",
"^	c #257ED0",
"/	c #377799",
"(	c #397592",
"_	c #87BBD9",
":	c #8BCDEC",
"<	c #B4E3FB",
"[	c #D9DEE8",
"}	c #DDE0EA",
"|	c #FEFEFF",
"1	c #40B0D9",
"2	c #2B6887",
"3	c #FFFFFF",
"      3333  33  ",
"     3(%%/33]3  ",
"    [;=>==~_&3  ",
"   32>@@1$:<*3  ",
"  32{22#!$)'-3  ",
"  32;333&+'',3  ",
"  3%3 3#&*-,^3  ",
" 3333333333333  ",
" 3^,-*&#3 3%3   ",
" 3,<++&333;23   ",
" 3-+)$!##2{23   ",
" 3*+:$1@@.23    ",
" 3&_~!!..;}|    ",
" 3]33/%%(3      ",
" 33  3333       ",
"                "};
