/* XPM */
static const char * rs_first_xpm[] = {
"16 16 80 1",
" 	c None",
".	c #80ABEA",
"+	c #7EA9E8",
"@	c #77A6E6",
"#	c #538DD9",
"$	c #5089D9",
"%	c #80ABE8",
"&	c #B4CEF2",
"*	c #A2C1EE",
"=	c #70A0E2",
"-	c #4C89D8",
";	c #4A89D9",
">	c #4584D8",
",	c #B0CBF0",
"'	c #9DBEEC",
")	c #659BE1",
"!	c #4A85D6",
"~	c #699DDF",
"{	c #90B4E7",
"]	c #397BD2",
"^	c #ABC8EF",
"/	c #96B9EA",
"(	c #5C92DF",
"_	c #4784D6",
":	c #669ADF",
"<	c #8FB5E7",
"[	c #8DB2E6",
"}	c #2C74CF",
"|	c #A5C4ED",
"1	c #8FB4E8",
"2	c #528BD9",
"3	c #4180D4",
"4	c #6497DD",
"5	c #90B5E6",
"6	c #7EA9E2",
"7	c #85ADE4",
"8	c #1E6BCD",
"9	c #9EC0EB",
"0	c #98BBE9",
"a	c #4384D6",
"b	c #73A2E1",
"c	c #8EB3E6",
"d	c #79A7E1",
"e	c #6B9CDD",
"f	c #7EA8E1",
"g	c #1A62C8",
"h	c #6D9EDE",
"i	c #86AEE4",
"j	c #71A1DF",
"k	c #6297DB",
"l	c #76A3DF",
"m	c #1859C6",
"n	c #91B6E8",
"o	c #77A4E1",
"p	c #1E69CB",
"q	c #4481D3",
"r	c #7AA7E0",
"s	c #6397DA",
"t	c #709FDE",
"u	c #1752C0",
"v	c #8AB1E5",
"w	c #6D9DDE",
"x	c #195AC4",
"y	c #3D77D0",
"z	c #6E9FDD",
"A	c #6A9BDC",
"B	c #164ABD",
"C	c #83ACE3",
"D	c #6597DB",
"E	c #386BCA",
"F	c #1441BB",
"G	c #7BA8E1",
"H	c #5E91D8",
"I	c #143EB6",
"J	c #3364C6",
"K	c #133CB7",
"L	c #195CC6",
"M	c #1855C4",
"N	c #1233B2",
"O	c #1239B6",
"                ",
"                ",
"   ..+@    #$   ",
"   %&*=   -;>   ",
"   @,')  !~{]   ",
"   =^/( _:<[}   ",
"   )|12345678   ",
"   (90abcdefg   ",
"   20c]hijklm   ",
"   >no}pqrstu   ",
"   ]vw8 xyzAB   ",
"   }CDg  BEsF   ",
"   8GHm   IJK   ",
"   gLMu    NO   ",
"                ",
"                "};
