/* XPM */
static const char * rs_last_xpm[] = {
"16 16 83 1",
" 	c None",
".	c #80ABE8",
"+	c #7EA9E8",
"@	c #659BE1",
"#	c #6095DF",
"$	c #5990DD",
"%	c #528BD9",
"&	c #7BA7E8",
"*	c #72A2E2",
"=	c #5C92DF",
"-	c #8BB3E7",
";	c #9ABCEA",
">	c #4584D8",
",	c #77A6E6",
"'	c #ADC8EF",
")	c #88B0E8",
"!	c #6297DF",
"~	c #84AEE4",
"{	c #94B7E8",
"]	c #397BD2",
"^	c #70A0E2",
"/	c #ABC8EF",
"(	c #A6C3EE",
"_	c #7AA6E5",
":	c #4E89D8",
"<	c #7BA8E3",
"[	c #8DB2E6",
"}	c #2C74CF",
"|	c #A5C4ED",
"1	c #97BAEA",
"2	c #9EBEEA",
"3	c #699DDF",
"4	c #397BD1",
"5	c #73A2E0",
"6	c #85ADE4",
"7	c #1E6BCD",
"8	c #9EC0EB",
"9	c #87B0E6",
"0	c #89B1E6",
"a	c #92B7E8",
"b	c #6E9DDF",
"c	c #2A72CF",
"d	c #81ABE2",
"e	c #7EA8E1",
"f	c #1A62C8",
"g	c #98BBE9",
"h	c #7FAAE3",
"i	c #82ABE3",
"j	c #8BB2E5",
"k	c #6699DD",
"l	c #74A3DF",
"m	c #76A3DF",
"n	c #1859C6",
"o	c #91B6E8",
"p	c #7FA9E3",
"q	c #89B1E4",
"r	c #4B87D6",
"s	c #1A63C8",
"t	c #5E92D9",
"u	c #709FDE",
"v	c #1752C0",
"w	c #8AB1E5",
"x	c #86AEE4",
"y	c #4685D6",
"z	c #1A60C6",
"A	c #578BD6",
"B	c #6A9BDC",
"C	c #164ABD",
"D	c #83ACE3",
"E	c #4481D3",
"F	c #195CC6",
"G	c #5385D4",
"H	c #6397DA",
"I	c #1441BB",
"J	c #4281D3",
"K	c #1959C4",
"L	c #4E80D2",
"M	c #5E94D8",
"N	c #133CB7",
"O	c #1855C0",
"P	c #143EB9",
"Q	c #133AB7",
"R	c #1239B6",
"                ",
"                ",
"   .+    @#$%   ",
"   .&*   =-;>   ",
"   ,')!  %~{]   ",
"   ^/(_: ><[}   ",
"   @|1234]567   ",
"   =890abcdef   ",
"   %ghijk7lmn   ",
"   >opqrsftuv   ",
"   ]wxyz nABC   ",
"   }DEF  vGHI   ",
"   7JK   CLMN   ",
"   fO    IPQR   ",
"                ",
"                "};
