/* XPM */
static const char * rs_next_xpm[] = {
"16 16 55 1",
" 	c None",
".	c #80ABE8",
"+	c #7EA9E8",
"@	c #80ABEA",
"#	c #7CA9E8",
"$	c #74A2E2",
"%	c #79A7E6",
"&	c #ADC8EF",
"*	c #87B0E8",
"=	c #6095DD",
"-	c #6EA0E2",
";	c #A8C7EE",
">	c #A3C2ED",
",	c #75A4E3",
"'	c #4784D6",
")	c #6297E1",
"!	c #A1C1EC",
"~	c #92B7E8",
"{	c #99BBE9",
"]	c #6197DD",
"^	c #2C72CD",
"/	c #538EDB",
"(	c #99BBEA",
"_	c #80AAE3",
":	c #81ABE3",
"<	c #8AB1E4",
"[	c #4B88D6",
"}	c #1A62C6",
"|	c #4384D6",
"1	c #90B5E7",
"2	c #74A3E0",
"3	c #77A4E0",
"4	c #81ABE2",
"5	c #437FD3",
"6	c #1959C6",
"7	c #3577D2",
"8	c #87AFE4",
"9	c #72A1DF",
"0	c #7CA9E1",
"a	c #3F7AD0",
"b	c #1853C0",
"c	c #236ECD",
"d	c #7EA8E1",
"e	c #79A6E0",
"f	c #3D77D0",
"g	c #1750BD",
"h	c #1A62C9",
"i	c #75A3DF",
"j	c #3C74CF",
"k	c #164ABD",
"l	c #1859C4",
"m	c #3B71CC",
"n	c #1545B9",
"o	c #164EC0",
"p	c #1441B7",
"                ",
"                ",
"    .+          ",
"    @#$         ",
"    %&*=        ",
"    -;>,'       ",
"    )!~{]^      ",
"    /(_:<[}     ",
"    |123456     ",
"    7890ab      ",
"    cdefg       ",
"    hijk        ",
"    lmn         ",
"    op          ",
"                ",
"                "};
