/* XPM */
static const char * rs_previous_xpm[] = {
"16 16 54 1",
" 	c None",
".	c #6B9BE1",
"+	c #6599E1",
"@	c #6599DF",
"#	c #6297E1",
"$	c #5990DD",
"%	c #6095DD",
"&	c #7AA6E5",
"*	c #9ABDEA",
"=	c #4A87D9",
"-	c #5A90DB",
";	c #75A4E3",
">	c #99BBE9",
",	c #95B9E8",
"'	c #3A7CD4",
")	c #538DD9",
"!	c #71A0E0",
"~	c #86AFE5",
"{	c #8DB2E6",
"]	c #2A72CF",
"^	c #5089D9",
"/	c #6B9DE0",
"(	c #95B8E8",
"_	c #81ABE3",
":	c #72A1DF",
"<	c #83ADE3",
"[	c #1B65C9",
"}	c #4180D6",
"|	c #5F95DC",
"1	c #8BB3E5",
"2	c #77A4E0",
"3	c #679ADC",
"4	c #7AA6E1",
"5	c #195CC6",
"6	c #276ECD",
"7	c #4885D6",
"8	c #7CA9E1",
"9	c #6698DB",
"0	c #71A1DE",
"a	c #1752C0",
"b	c #195CC4",
"c	c #3D77D0",
"d	c #6E9FDD",
"e	c #699BDC",
"f	c #1547BD",
"g	c #164ABD",
"h	c #376BC9",
"i	c #6295DA",
"j	c #1440B9",
"k	c #1339B4",
"l	c #315FC4",
"m	c #1339B7",
"n	c #1130B0",
"o	c #1233B4",
"                ",
"                ",
"         .+     ",
"        @#$     ",
"       %&*=     ",
"      -;>,'     ",
"     )!>~{]     ",
"    ^/(_:<[     ",
"    }|12345     ",
"     67890a     ",
"      bcdef     ",
"       ghij     ",
"        klm     ",
"         no     ",
"                ",
"                "};
