/* XPM */
static const char * sanegeom_xpm[] = {
"16 16 95 2",
"  	c None",
". 	c #FFD7DF",
"+ 	c #FFD2E6",
"@ 	c #FFD4E2",
"# 	c #FFF0F1",
"$ 	c #FFD7DC",
"% 	c #FFCFE3",
"& 	c #FFD2E9",
"* 	c #FFE7E7",
"= 	c #FFD2DC",
"- 	c #FFD6DA",
"; 	c #FFEDEF",
"> 	c #FFEAEC",
", 	c #FFC9DC",
"' 	c #FFCCE3",
") 	c #FFE4E3",
"! 	c #FFE2E2",
"~ 	c #FFC5DF",
"{ 	c #FFD3E6",
"] 	c #FFD6E3",
"^ 	c #FFD2DF",
"/ 	c #FFECF1",
"( 	c #FFEFF0",
"_ 	c #FFD9DF",
": 	c #FFC5D7",
"< 	c #FFCDE3",
"[ 	c #FFE6E3",
"} 	c #FFF0F0",
"| 	c #FFF3F4",
"1 	c #FFF1F3",
"2 	c #FFEDF0",
"3 	c #FFECED",
"4 	c #FFE2E3",
"5 	c #FFCFD7",
"6 	c #FFDFE0",
"7 	c #FFCCCC",
"8 	c #FFECEF",
"9 	c #FFE9EA",
"0 	c #FFD0D0",
"a 	c #FFB6CD",
"b 	c #FFB3CA",
"c 	c #FFBFD0",
"d 	c #FFB0B2",
"e 	c #FFC2C2",
"f 	c #FFD9DA",
"g 	c #FFE4E6",
"h 	c #FFEAED",
"i 	c #FFE9EC",
"j 	c #FFE7E9",
"k 	c #FFE6E7",
"l 	c #FFDCDD",
"m 	c #FF9FA3",
"n 	c #FFCDD0",
"o 	c #FFE7EA",
"p 	c #FFE6E9",
"q 	c #FFE4E7",
"r 	c #FFE2E4",
"s 	c #FF9296",
"t 	c #FFC3C9",
"u 	c #FFC0C2",
"v 	c #FFC5C5",
"w 	c #FFDADA",
"x 	c #FFECEC",
"y 	c #FFE3E6",
"z 	c #FFE0E3",
"A 	c #FFDFE2",
"B 	c #FF8B92",
"C 	c #FFB6CA",
"D 	c #FFC5C7",
"E 	c #FFE3E4",
"F 	c #FFE0E2",
"G 	c #FFDDDF",
"H 	c #FF888D",
"I 	c #FFC7C9",
"J 	c #FFB6B8",
"K 	c #FFC7C7",
"L 	c #FFDDE0",
"M 	c #FFDADD",
"N 	c #FFD4D7",
"O 	c #FF798C",
"P 	c #FFB3B3",
"Q 	c #FFD9D9",
"R 	c #FFD9DC",
"S 	c #FFC6C9",
"T 	c #FF898F",
"U 	c #FF8389",
"V 	c #FF6383",
"W 	c #FF5883",
"X 	c #FF8BB2",
"Y 	c #FF9BA3",
"Z 	c #FF9395",
"` 	c #FF7E80",
" .	c #FF7276",
"..	c #FF686F",
"+.	c #FF666E",
"          . +                   ",
"        @ # $ %                 ",
"        & * # =                 ",
"          - ; > ,               ",
"          ' ) # ! ~             ",
"      { ] ^ / ( ( _ :           ",
"  < [ } | 1 ( 2 ; 3 4 5         ",
"  = # ; 6 7 > 8 3 > 9 4 0 a b   ",
"  c d e f g ; h i 9 j k g l m   ",
"    n 1 ; l ( h o p q g r 4 s   ",
"    t u v w ; x k q y r z A B   ",
"    C D ; > > 3 k E 4 F 6 G H   ",
"      I J K E 3 q 4 F L M N O   ",
"        P Q 3 i E R S T U V W   ",
"          X Y Z `  ...+.        ",
"                                "};
