/* XPM */
static const char * sql_script_xpm[] = {
"16 16 174 2",
"  	c None",
". 	c #5FACE2",
"+ 	c #81BCEA",
"@ 	c #77B7E8",
"# 	c #6DB2E6",
"$ 	c #68B0E4",
"% 	c #8CC0EA",
"& 	c #FFFFFF",
"* 	c #F4F9FD",
"= 	c #EAF3FB",
"- 	c #D9EBF8",
"; 	c #D3E6F8",
"> 	c #C6DFF5",
", 	c #A6CBE9",
"' 	c #5DA8DE",
") 	c #5BA4DA",
"! 	c #9AC6EB",
"~ 	c #E2EFFC",
"{ 	c #E7F0FD",
"] 	c #EBF1FD",
"^ 	c #EEF5FD",
"/ 	c #F1F8FD",
"( 	c #F7FAFD",
"_ 	c #FAFCFF",
": 	c #F7FBFE",
"< 	c #C0DAF4",
"[ 	c #589FD5",
"} 	c #A5CAEB",
"| 	c #FBFDFF",
"1 	c #D5E9FD",
"2 	c #D8EBFD",
"3 	c #DBEAFD",
"4 	c #DFEDFD",
"5 	c #E2F0FD",
"6 	c #E4F1FD",
"7 	c #E4F0FC",
"8 	c #70A0E0",
"9 	c #F9FBFF",
"0 	c #87B8DF",
"a 	c #559AD0",
"b 	c #B2D0ED",
"c 	c #F0F6FF",
"d 	c #CAE1FA",
"e 	c #CCE3FB",
"f 	c #D0E3FB",
"g 	c #D3E6FB",
"h 	c #D5E9FB",
"i 	c #D8E9FC",
"j 	c #DBEAFC",
"k 	c #FDFFFF",
"l 	c #719DD2",
"m 	c #C1D9EE",
"n 	c #5294CA",
"o 	c #C1D9F0",
"p 	c #E1EDFB",
"q 	c #C0DAF9",
"r 	c #C2DCF9",
"s 	c #C5DEF9",
"t 	c #C7E0FA",
"u 	c #CAE2FA",
"v 	c #CDE2FA",
"w 	c #D0E5FA",
"x 	c #FDFEFF",
"y 	c #5A8FCB",
"z 	c #4E8EC4",
"A 	c #D8E7F5",
"B 	c #D2E5FA",
"C 	c #BCDAF9",
"D 	c #BCDBF9",
"E 	c #BFDBFA",
"F 	c #C1DDFA",
"G 	c #C4DDF9",
"H 	c #C8E1FB",
"I 	c #5794C8",
"J 	c #4B88BD",
"K 	c #F0F6FC",
"L 	c #C7DFF9",
"M 	c #BDDCF9",
"N 	c #BFDCFA",
"O 	c #C1DBFA",
"P 	c #C3DDFA",
"Q 	c #C2DDFA",
"R 	c #6EA53F",
"S 	c #659F31",
"T 	c #F5F9F8",
"U 	c #538DC1",
"V 	c #4B85B9",
"W 	c #C1DCF9",
"X 	c #BFDCF8",
"Y 	c #C0DBF8",
"Z 	c #C0DDF9",
"` 	c #67A139",
" .	c #81B35A",
"..	c #579828",
"+.	c #4783B2",
"@.	c #5286B9",
"#.	c #F9FCFE",
"$.	c #BFDCF9",
"%.	c #BFDBF8",
"&.	c #6FA53D",
"*.	c #6EA339",
"=.	c #68A135",
"-.	c #629E31",
";.	c #7CAF55",
">.	c #AACB91",
",.	c #74AB4F",
"'.	c #458F18",
").	c #5686B7",
"!.	c #FDFEFE",
"~.	c #C2DEFA",
"{.	c #6BA337",
"].	c #B0CE96",
"^.	c #ADCD94",
"/.	c #A8CB90",
"(.	c #90BC74",
"_.	c #A1C78A",
":.	c #68A546",
"<.	c #358707",
"[.	c #3C6FA4",
"}.	c #8CAED5",
"|.	c #E5F0FD",
"1.	c #A2C7F7",
"2.	c #ADCFF7",
"3.	c #639F31",
"4.	c #8EBA6F",
"5.	c #89B86B",
"6.	c #85B666",
"7.	c #80B361",
"8.	c #82B567",
"9.	c #98C283",
"0.	c #5CA03C",
"a.	c #257F00",
"b.	c #39699E",
"c.	c #5985B4",
"d.	c #7BA5D9",
"e.	c #6F9ED8",
"f.	c #6A9BD7",
"g.	c #5B9B29",
"h.	c #A9CA90",
"i.	c #A5C88D",
"j.	c #A1C68A",
"k.	c #9EC588",
"l.	c #85B66A",
"m.	c #97C282",
"n.	c #66A548",
"o.	c #217D00",
"p.	c #366499",
"q.	c #85A4C7",
"r.	c #529722",
"s.	c #4A911C",
"t.	c #448F16",
"u.	c #3C8B10",
"v.	c #5E9F3A",
"w.	c #96C180",
"x.	c #62A346",
"y.	c #207C08",
"z.	c #6D90B8",
"A.	c #A3BAD6",
"B.	c #B3C6DF",
"C.	c #C3D4E7",
"D.	c #D3DFEE",
"E.	c #E2EAF5",
"F.	c #EFF4FB",
"G.	c #F6FAFD",
"H.	c #32870B",
"I.	c #5FA143",
"J.	c #297F14",
"K.	c #2B6768",
"L.	c #315B90",
"M.	c #396195",
"N.	c #41699A",
"O.	c #237D06",
"P.	c #1E7B03",
"Q.	c #2D5F7B",
"      . + @ # $ . . . . . .     ",
"      % & & & & * = - ; > , '   ",
"    ) ! & ~ { ] ^ / ( _ & : < ) ",
"    [ } | 1 2 3 4 5 6 7 & 8 9 0 ",
"    a b c d e f g h i j k l m a ",
"    n o p q r s t u v w x y n   ",
"    z A B C D E F F G H | I     ",
"    J K L M N O P Q R S T U     ",
"    V : W X X Y Z Z `  ...+.    ",
"    @.#.$.%.&.*.=.-.;.>.,.'.    ",
"    ).!.~.N {.].^.>./.(._.:.<.  ",
"  [.}.|.1.2.3.^.4.5.6.7.8.9.0.a.",
"  b.c.d.e.f.g.h.i.j.k.l.m.n.o.  ",
"p.q.& & & & r.s.t.u.v.w.x.y.    ",
"  z.A.B.C.D.E.F.G.x H.I.J.K.    ",
"  L.L.L.L.L.L.L.M.N.O.P.Q.      "};
