/* XPM */
static const char * sql_abort_no_xpm[] = {
"16 16 75 1",
" 	g None",
".	g #363636",
"+	g #585858",
"@	g #888888",
"#	g #878787",
"$	g #868686",
"%	g #858585",
"&	g #838383",
"*	g #818181",
"=	g #545454",
"-	g #353535",
";	g #898989",
">	g #6E6E6E",
",	g #5F5F5F",
"'	g #5D5D5D",
")	g #5C5C5C",
"!	g #595959",
"~	g #656565",
"{	g #7E7E7E",
"]	g #525252",
"^	g #D9D9D9",
"/	g #777777",
"(	g #5B5B5B",
"_	g #717171",
":	g #D7D7D7",
"<	g #797979",
"[	g #505050",
"}	g #343434",
"|	g #F6F6F6",
"1	g #F1F1F1",
"2	g #707070",
"3	g #F0F0F0",
"4	g #F5F5F5",
"5	g #D5D5D5",
"6	g #5A5A5A",
"7	g #747474",
"8	g #5E5E5E",
"9	g #757575",
"0	g #666666",
"a	g #474747",
"b	g #333333",
"c	g #848484",
"d	g #464646",
"e	g #434343",
"f	g #6F6F6F",
"g	g #828282",
"h	g #565656",
"i	g #636363",
"j	g #404040",
"k	g #6C6C6C",
"l	g #808080",
"m	g #555555",
"n	g #6D6D6D",
"o	g #F4F4F4",
"p	g #EEEEEE",
"q	g #3D3D3D",
"r	g #6A6A6A",
"s	g #606060",
"t	g #D6D6D6",
"u	g #EFEFEF",
"v	g #626262",
"w	g #D1D1D1",
"x	g #4B4B4B",
"y	g #686868",
"z	g #7A7A7A",
"A	g #D4D4D4",
"B	g #414141",
"C	g #696969",
"D	g #484848",
"E	g #323232",
"F	g #3E3E3E",
"G	g #3B3B3B",
"H	g #494949",
"I	g #4D4D4D",
"J	g #676767",
"                ",
"    ........    ",
"   .+@#$%&*=-   ",
"  .+;>,')!~{]-  ",
" .+;{^/(+_:_<[} ",
" .#>^|1_234567} ",
" .$891|11430a_b ",
" .c)!_1443~defb ",
" .g+h>1443iejkb ",
" .lmn3433op'qrb ",
" -{st4uivpowxyb ",
" -]znAieB'w8CDE ",
"  -[9mejFGHyDE  ",
"   }I2nkryJDE   ",
"    bbbbbbEE    ",
"                "};
