/* XPM */
static const char * srids_xpm[] = {
"16 16 207 2",
"  	c None",
". 	c #4D8BC8",
"+ 	c #4F8CC8",
"@ 	c #4F8DC8",
"# 	c #4F8CC9",
"$ 	c #4F8BC7",
"% 	c #4B89C5",
"& 	c #3B76C4",
"* 	c #4985C4",
"= 	c #ECF2F7",
"- 	c #EEF4F8",
"; 	c #EDF4F8",
"> 	c #EDF3F8",
", 	c #ECF2F8",
"' 	c #D7E6F2",
") 	c #7DB2E2",
"! 	c #6594DB",
"~ 	c #4B88C5",
"{ 	c #F2F6FA",
"] 	c #C7E0FA",
"^ 	c #C9E1FB",
"/ 	c #C9E2FB",
"( 	c #C8E0FB",
"_ 	c #C5DFF9",
": 	c #C1DBF8",
"< 	c #B8D6F4",
"[ 	c #F8FBFF",
"} 	c #B4D8F6",
"| 	c #7DB0E1",
"1 	c #6492DB",
"2 	c #4C89A5",
"3 	c #91BD8A",
"4 	c #80B778",
"5 	c #78B474",
"6 	c #7BB379",
"7 	c #89B896",
"8 	c #B7D4E1",
"9 	c #C2DCF8",
"0 	c #BAD6F5",
"a 	c #F8FBFD",
"b 	c #CDE6FC",
"c 	c #C9E5FA",
"d 	c #84B6E2",
"e 	c #4279BF",
"f 	c #8DBD7D",
"g 	c #CEE3BD",
"h 	c #CEE8CF",
"i 	c #B7DED7",
"j 	c #ABD5D0",
"k 	c #94C3A6",
"l 	c #73A970",
"m 	c #AACAD3",
"n 	c #BCD9F6",
"o 	c #DFE9F4",
"p 	c #F3F7FB",
"q 	c #E9EFF5",
"r 	c #457EC2",
"s 	c #8CBF77",
"t 	c #D2EFBE",
"u 	c #CFF2CD",
"v 	c #BEE4D4",
"w 	c #A3DBDB",
"x 	c #84C3DA",
"y 	c #8CC3D1",
"z 	c #ACD2A6",
"A 	c #689F64",
"B 	c #ACCBD9",
"C 	c #BBD6F5",
"D 	c #B5D4F3",
"E 	c #B3D2F1",
"F 	c #F0F4F8",
"G 	c #4682C4",
"H 	c #63A256",
"I 	c #C1E0A7",
"J 	c #ABF1BB",
"K 	c #BAECC9",
"L 	c #9AD5D8",
"M 	c #7AC0D6",
"N 	c #67BCB7",
"O 	c #71D693",
"P 	c #91DF8B",
"Q 	c #90B77A",
"R 	c #75A186",
"S 	c #BDDAF6",
"T 	c #BBD8F6",
"U 	c #EFF4FA",
"V 	c #4683C6",
"W 	c #80B66F",
"X 	c #B0E4A1",
"Y 	c #8CE7A1",
"Z 	c #BDEAD5",
"` 	c #6AB4CC",
" .	c #77C8C5",
"..	c #5BDB7D",
"+.	c #45DA5F",
"@.	c #5BC361",
"#.	c #ABCA92",
"$.	c #629164",
"%.	c #C3DDF9",
"&.	c #EDF4FA",
"*.	c #4582C6",
"=.	c #86BA74",
"-.	c #A0DC90",
";.	c #79D995",
">.	c #82C6CA",
",.	c #59A6CD",
"'.	c #70BCC0",
").	c #6CCFAC",
"!.	c #55B99C",
"~.	c #52A564",
"{.	c #AAC990",
"].	c #5D8E5E",
"^.	c #CCE3FB",
"/.	c #C7DFFA",
"(.	c #C6DFFA",
"_.	c #EAF2FA",
":.	c #4280C6",
"<.	c #78AE67",
"[.	c #ADDC98",
"}.	c #83D5B0",
"|.	c #63AEC8",
"1.	c #57ABDB",
"2.	c #50A1D3",
"3.	c #4589C0",
"4.	c #4F91C0",
"5.	c #66A383",
"6.	c #A0C083",
"7.	c #5F8D65",
"8.	c #CDE2FC",
"9.	c #CBE1FB",
"0.	c #F2F7FB",
"a.	c #3F7CC5",
"b.	c #4E8F44",
"c.	c #A7CD90",
"d.	c #7CC574",
"e.	c #6AB5AA",
"f.	c #58A5D5",
"g.	c #56A9E1",
"h.	c #4D98BC",
"i.	c #56A18A",
"j.	c #88B27C",
"k.	c #6D9B5D",
"l.	c #7DA295",
"m.	c #CCE2FC",
"n.	c #C9E0FB",
"o.	c #C8E1FB",
"p.	c #F7FAFD",
"q.	c #3B76C1",
"r.	c #5F9651",
"s.	c #A3CA86",
"t.	c #8ECAAF",
"u.	c #6EAECE",
"v.	c #68ACD9",
"w.	c #67A5A2",
"x.	c #8AB96D",
"y.	c #83A96D",
"z.	c #3B806C",
"A.	c #4FAEEB",
"B.	c #51B2F7",
"C.	c #4FB2F7",
"D.	c #F5F9FC",
"E.	c #366FBF",
"F.	c #498255",
"G.	c #88B589",
"H.	c #92BAB7",
"I.	c #8EB7BD",
"J.	c #9BC09E",
"K.	c #6C9E5A",
"L.	c #528B70",
"M.	c #8ECDF0",
"N.	c #95D6FF",
"O.	c #94D5FF",
"P.	c #93D4FF",
"Q.	c #65BEFB",
"R.	c #F4F7FB",
"S.	c #3167BB",
"T.	c #356EA7",
"U.	c #7AA081",
"V.	c #44815F",
"W.	c #427F5B",
"X.	c #468464",
"Y.	c #468F95",
"Z.	c #61B9F2",
"`.	c #62BDFC",
" +	c #63BDFB",
".+	c #61BCFB",
"++	c #60BEFC",
"@+	c #62BCFC",
"#+	c #2D64B9",
"$+	c #3369BC",
"%+	c #EAF1F8",
"&+	c #DFECF7",
"*+	c #DEEBF6",
"=+	c #DEEAF6",
"-+	c #DCEAF6",
";+	c #EBF3FA",
">+	c #F3F7FC",
",+	c #F4F8FC",
"'+	c #FDFEFE",
")+	c #2A60B7",
"!+	c #3065BA",
"~+	c #3166BB",
"{+	c #3066BA",
"]+	c #2F65BA",
"^+	c #2E65B9",
"/+	c #2E64B9",
"(+	c #2C62B7",
"      . + + + + @ # $ % &       ",
"    * = - ; > > > , = ' ) !     ",
"    ~ { ] ^ / ( _ : < [ } | 1   ",
"    2 3 4 5 6 7 8 9 0 a b c d e ",
"    f g h i j k l m n o = p q r ",
"  s t u v w x y z A B C D E F G ",
"H I J K L M N O P Q R 9 S T U V ",
"W X Y Z `  ...+.@.#.$.] %.9 &.*.",
"=.-.;.>.,.'.).!.~.{.].^./.(._.:.",
"<.[.}.|.1.2.3.4.5.6.7.8.9.^ 0.a.",
"b.c.d.e.f.g.h.i.j.k.l.m.n.o.p.q.",
"  r.s.t.u.v.w.x.y.z.A.B.C.C.D.E.",
"    F.G.H.I.J.K.L.M.N.O.P.Q.R.S.",
"    T.U.V.W.X.Y.Z.`. +.+++@+a #+",
"    $+%+&+*+=+-+-+;+;+_.>+,+'+)+",
"      !+~+{+{+{+!+]+^+^+/+/+(+  "};
