/* XPM */
static const char * statistics_xpm[] = {
"16 16 158 2",
"  	c None",
". 	c #77A6EA",
"+ 	c #74A4E8",
"@ 	c #6EA0E8",
"# 	c #6B9DE6",
"$ 	c #6599E4",
"% 	c #5E95E2",
"& 	c #70A0E8",
"* 	c #ACC8F2",
"= 	c #A8C6F0",
"- 	c #A6C5F0",
"; 	c #A2C2EF",
"> 	c #538EE1",
", 	c #679BE6",
"' 	c #91B6EC",
") 	c #8CB3EB",
"! 	c #9BBCEE",
"~ 	c #4785DF",
"{ 	c #5C92E2",
"] 	c #A0C1EE",
"^ 	c #89B1EA",
"/ 	c #85AEE9",
"( 	c #94B7ED",
"_ 	c #3A7CDB",
": 	c #FE7874",
"< 	c #FE7672",
"[ 	c #FD716E",
"} 	c #FC6C6A",
"| 	c #528DE1",
"1 	c #99BBED",
"2 	c #81ACE9",
"3 	c #7CA8E7",
"4 	c #8DB3EA",
"5 	c #2C74D8",
"6 	c #FEBBB8",
"7 	c #FEB9B6",
"8 	c #FEB6B3",
"9 	c #FEB3B0",
"0 	c #4584DF",
"a 	c #92B7EC",
"b 	c #78A5E6",
"c 	c #73A2E6",
"d 	c #85ADE9",
"e 	c #1E6BD6",
"f 	c #FD7370",
"g 	c #FEB7B4",
"h 	c #FE8581",
"i 	c #FE817C",
"j 	c #FEAFAC",
"k 	c #397BD9",
"l 	c #8AB2EA",
"m 	c #6E9FE4",
"n 	c #6A9CE3",
"o 	c #7DA8E7",
"p 	c #1A62D1",
"q 	c #FE7E79",
"r 	c #FE7975",
"s 	c #FEAAA8",
"t 	c #2A74D8",
"u 	c #83ADE8",
"v 	c #6598E2",
"w 	c #6095E1",
"x 	c #76A3E5",
"y 	c #1857CF",
"z 	c #6CBC60",
"A 	c #67B65C",
"B 	c #61B057",
"C 	c #5CA852",
"D 	c #55A14D",
"E 	c #FA6463",
"F 	c #FE716D",
"G 	c #FEA4A2",
"H 	c #1E69D6",
"I 	c #7BA7E7",
"J 	c #5C92E0",
"K 	c #568FDF",
"L 	c #6E9EE4",
"M 	c #164ECD",
"N 	c #B5D9BA",
"O 	c #B1D6B7",
"P 	c #AED3B3",
"Q 	c #A9D1AE",
"R 	c #4D9645",
"S 	c #F85B5B",
"T 	c #FE6F6B",
"U 	c #FE6965",
"V 	c #FEA09E",
"W 	c #1A60D1",
"X 	c #74A2E5",
"Y 	c #538CDE",
"Z 	c #4D89DD",
"` 	c #6699E2",
" .	c #1545C9",
"..	c #B0D5B5",
"+.	c #83BD8A",
"@.	c #7DB883",
"#.	c #A3CDA7",
"$.	c #448B3D",
"%.	c #F65153",
"&.	c #FE6662",
"*.	c #FE615D",
"=.	c #FE9B99",
"-.	c #1855CF",
";.	c #6C9CE3",
">.	c #4A86DC",
",.	c #4483DB",
"'.	c #5E94E0",
").	c #133CC6",
"!.	c #ABD1AF",
"~.	c #7AB780",
"{.	c #73B279",
"].	c #9CC8A0",
"^.	c #3C8035",
"/.	c #F5474A",
"(.	c #FE5E5B",
"_.	c #FE5956",
":.	c #FE9795",
"<.	c #164CCD",
"[.	c #6397E1",
"}.	c #4180DA",
"|.	c #3B7DD9",
"1.	c #588FDF",
"2.	c #1235C6",
"3.	c #A4CDA8",
"4.	c #71B077",
"5.	c #6AAB70",
"6.	c #96C49A",
"7.	c #33762E",
"8.	c #F33D41",
"9.	c #FE9896",
"0.	c #FE9593",
"a.	c #FE9391",
"b.	c #1543C9",
"c.	c #5D93E0",
"d.	c #598FDF",
"e.	c #558DDF",
"f.	c #518ADE",
"g.	c #112EC0",
"h.	c #9EC9A2",
"i.	c #99C69D",
"j.	c #95C398",
"k.	c #91C094",
"l.	c #2C6D27",
"m.	c #804487",
"n.	c #7E3F83",
"o.	c #7D387F",
"p.	c #7C337C",
"q.	c #7B2E79",
"r.	c #133AC6",
"s.	c #1237C6",
"t.	c #1231C4",
"u.	c #102AC0",
"v.	c #0F27BF",
"w.	c #254F7C",
"x.	c #214A7A",
"y.	c #1E4677",
"z.	c #1B4275",
"A.	c #193F73",
"                                ",
"          . + @ # $ %           ",
"          & * = - ; >           ",
"          , - ' ) ! ~           ",
"          { ] ^ / ( _           ",
": : < [ } | 1 2 3 4 5           ",
": 6 7 8 9 0 a b c d e           ",
"f g h i j k l m n o p           ",
"} 9 q r s t u v w x y z A B C D ",
"E j < F G H I J K L M N O P Q R ",
"S s T U V W X Y Z `  ...+.@.#.$.",
"%.G &.*.=.-.;.>.,.'.).!.~.{.].^.",
"/.V (._.:.<.[.}.|.1.2.3.4.5.6.7.",
"8.=.9.0.a.b.c.d.e.f.g.h.i.j.k.l.",
"m.n.o.p.q.r.s.t.g.u.v.w.x.y.z.A.",
"                                "};
