/* XPM */
static const char * tables_xpm[] = {
"16 16 93 2",
"  	c None",
". 	c #A2C1EF",
"+ 	c #9FC0ED",
"@ 	c #9DBEEB",
"# 	c #93B7E7",
"$ 	c #8CB2E4",
"% 	c #88AFE2",
"& 	c #84ACE0",
"* 	c #80A9DD",
"= 	c #7DA5DC",
"- 	c #7AA3DA",
"; 	c #A1C1EE",
"> 	c #F4F7FB",
", 	c #74A0D7",
"' 	c #9EBFEC",
") 	c #A4CBC6",
"! 	c #A2C4E1",
"~ 	c #9EC1E5",
"{ 	c #9BBFE3",
"] 	c #92B8DF",
"^ 	c #8BB3DC",
"/ 	c #87B0DA",
"( 	c #8DB2E2",
"_ 	c #7FA8DC",
": 	c #9BBDEB",
"< 	c #AECAF0",
"[ 	c #F5F8FB",
"} 	c #E9EFF8",
"| 	c #98BAE9",
"1 	c #9FBFEC",
"2 	c #EEF3FA",
"3 	c #A4CBC9",
"4 	c #A2C3E6",
"5 	c #94B7E7",
"6 	c #9CBDEB",
"7 	c #A8C6EF",
"8 	c #8FB4E5",
"9 	c #F2F6FA",
"0 	c #99BBE9",
"a 	c #A5D59C",
"b 	c #A1D398",
"c 	c #93CB8B",
"d 	c #89C682",
"e 	c #84C37E",
"f 	c #80C17A",
"g 	c #7CBE76",
"h 	c #6F9BD4",
"i 	c #8CB1E3",
"j 	c #F1F6FA",
"k 	c #96B8E7",
"l 	c #FFFFFF",
"m 	c #6A97D1",
"n 	c #87AEE1",
"o 	c #F0F4FA",
"p 	c #92B6E5",
"q 	c #EDF3F9",
"r 	c #A6C3E9",
"s 	c #6493CE",
"t 	c #75A1D7",
"u 	c #EDF2F8",
"v 	c #93B6E5",
"w 	c #F0F5FA",
"x 	c #ACC7E8",
"y 	c #EBF1F7",
"z 	c #5F8FCB",
"A 	c #729ED6",
"B 	c #6E99D3",
"C 	c #85ACE0",
"D 	c #E5ECF7",
"E 	c #AAC6E9",
"F 	c #ACC6E9",
"G 	c #B0C9E9",
"H 	c #B0C8E8",
"I 	c #B5CCE8",
"J 	c #DEE7F2",
"K 	c #598AC8",
"L 	c #AEC9EA",
"M 	c #DBE5F1",
"N 	c #5586C6",
"O 	c #B2CBEA",
"P 	c #B3CCEA",
"Q 	c #AEC8E8",
"R 	c #D8E2F0",
"S 	c #5486C4",
"T 	c #EAF0F7",
"U 	c #E6EDF6",
"V 	c #DBE4F1",
"W 	c #5D8AC5",
"X 	c #6896D1",
"Y 	c #6392CE",
"Z 	c #5687C7",
"` 	c #5284C3",
" .	c #4277BB",
"                                ",
"    . + @ # $ % & * = -         ",
"  ; > > > > > > > > > ,         ",
"  ' > ) ! ~ { ] ^ / ( _ = -     ",
"  : > < [ [ [ [ [ [ > } > ,     ",
"  | > 1 2 3 4 + @ # $ % & * = - ",
"  5 > 6 [ 7 > > > > > > > > > , ",
"  8 9 0 2 ' > a b c d e f g > h ",
"  i j k [ : > l l l l l l l > m ",
"  n o p q | > r r r r r r r > s ",
"  t u v w 5 > r l x l l l l y z ",
"  A B C D 8 9 E F x x G H I J K ",
"      t u i j L l x l l l l M N ",
"      A B n o O P x x x H Q R S ",
"          t u T U V R R R R R W ",
"          A B X Y Z ` ` ` ` `  ."};
