/* XPM */
static const char * tmp_view_xpm[] = {
"16 16 125 2",
"  	c None",
". 	c #D8CECE",
"+ 	c #D7CCCC",
"@ 	c #D5CACA",
"# 	c #D3C8C8",
"$ 	c #D2C6C6",
"% 	c #D9CECE",
"& 	c #EBE4E4",
"* 	c #F6F3F3",
"= 	c #FCFBFB",
"- 	c #FCFCFC",
"; 	c #F8F5F5",
"> 	c #ECE6E6",
", 	c #CEC2C2",
"' 	c #D7CDCD",
") 	c #FAF9F9",
"! 	c #FAF8F8",
"~ 	c #CBBFBF",
"{ 	c #BACCEF",
"] 	c #B7CAEF",
"^ 	c #B3C8ED",
"/ 	c #AFC5EC",
"( 	c #ABC3EB",
"_ 	c #A8C0E9",
": 	c #A5BDE8",
"< 	c #A1BBE6",
"[ 	c #D6CBCB",
"} 	c #F9F6F6",
"| 	c #F2EDED",
"1 	c #F1ECEC",
"2 	c #E2D9D9",
"3 	c #F8F6F6",
"4 	c #C9BDBD",
"5 	c #FAF9FC",
"6 	c #9BB8E4",
"7 	c #FBFAFA",
"8 	c #EEE7E7",
"9 	c #F7F4F4",
"0 	c #E7DFDF",
"a 	c #FEFEFE",
"b 	c #C6BABA",
"c 	c #BADCA5",
"d 	c #B5DAA1",
"e 	c #B0D89C",
"f 	c #ABD698",
"g 	c #A8D494",
"h 	c #A3D290",
"i 	c #96B4E2",
"j 	c #D2C7C7",
"k 	c #EAE3E3",
"l 	c #E4DCDC",
"m 	c #C3B7B7",
"n 	c #90B0E0",
"o 	c #D0C5C5",
"p 	c #E8E0E0",
"q 	c #E0D7D7",
"r 	c #E1D8D8",
"s 	c #C0B3B3",
"t 	c #CAD6F1",
"u 	c #8AADDE",
"v 	c #CEC3C3",
"w 	c #E4DBDB",
"x 	c #BAADAD",
"y 	c #CED9F0",
"z 	c #F6F6F9",
"A 	c #84A9DC",
"B 	c #CCC0C0",
"C 	c #F5F1F1",
"D 	c #B8AEB3",
"E 	c #D0DAF1",
"F 	c #D2DAF1",
"G 	c #D2D9F0",
"H 	c #D5DCF0",
"I 	c #EFEFF6",
"J 	c #7DA4D9",
"K 	c #C1BCC5",
"L 	c #CDC2C2",
"M 	c #C1B8BC",
"N 	c #C1BFCB",
"O 	c #F9F7F7",
"P 	c #EEEEF6",
"Q 	c #78A0D8",
"R 	c #B1C3E5",
"S 	c #EEE9ED",
"T 	c #CCCFE1",
"U 	c #CFD5E7",
"V 	c #D2D9ED",
"W 	c #D4DCF1",
"X 	c #D7DEF1",
"Y 	c #D0D9F0",
"Z 	c #ECECF5",
"` 	c #77A0D6",
" .	c #A9C1EA",
"..	c #F7F7FB",
"+.	c #DADFF2",
"@.	c #D9DFF1",
"#.	c #F9F9FC",
"$.	c #84A7D9",
"%.	c #A6BFE9",
"&.	c #D9DFF2",
"*.	c #DBE0F2",
"=.	c #D5DDF1",
"-.	c #80A4D8",
";.	c #A1BCE6",
">.	c #DCE1F2",
",.	c #DCE2F2",
"'.	c #CFD9F1",
").	c #84A6D8",
"!.	c #9CB9E4",
"~.	c #F6F6FA",
"{.	c #F5F5F9",
"].	c #F3F3F9",
"^.	c #F1F1F8",
"/.	c #EFEFF7",
"(.	c #EEEDF6",
"_.	c #82A4D7",
":.	c #99B7E4",
"<.	c #95B2E2",
"[.	c #8EAFE0",
"}.	c #89ACDE",
"|.	c #83A8DC",
"1.	c #7FA4DA",
"2.	c #79A1D9",
"3.	c #749ED6",
"4.	c #6091CF",
"    . + @ # $                   ",
"% & * = - ; > ,                 ",
"' ) ! = - ) ) ~ { ] ^ / ( _ : < ",
"[ } > | 1 2 3 4 5 5 5 5 5 5 5 6 ",
"@ 7 8 9 0 0 a b c d e f g h 5 i ",
"j 7 k 9 l l a m a a a a a a 5 n ",
"o 7 p * q r a s t t t t t t 5 u ",
"v = & 1 w 0 a x a a y a a a z A ",
"B l C ; } * w D E F y F G H I J ",
"    K L M ~ N O a a y a a a P Q ",
"    R S T U V W W X y y G Y Z ` ",
"     ...X a +.a a a @.#.a a Z $.",
"    %...&.+.+.+.+.*.=.=.=.=.Z -.",
"    ;...>.a ,.a a a '.a a a Z ).",
"    !.~.{.].^./.(.Z Z Z Z Z Z _.",
"    :.<.[.}.|.1.2.3.3.3.3.3.3.4."};
