/* XPM */
static const char * tmp_table_xpm[] = {
"16 16 94 2",
"  	c None",
". 	c #C6D4F4",
"+ 	c #C4D3F3",
"@ 	c #C2D2F2",
"# 	c #C0D0F2",
"$ 	c #BCCEF1",
"% 	c #BACCEF",
"& 	c #B7CAEF",
"* 	c #B3C8ED",
"= 	c #AFC5EC",
"- 	c #ABC3EB",
"; 	c #A8C0E9",
"> 	c #A5BDE8",
", 	c #A1BBE6",
"' 	c #FAF9FC",
") 	c #9BB8E4",
"! 	c #C3D2F3",
"~ 	c #C9E3B5",
"{ 	c #C6E2B1",
"] 	c #C2DFAD",
"^ 	c #BEDEAA",
"/ 	c #BADCA5",
"( 	c #B5DAA1",
"_ 	c #B0D89C",
": 	c #ABD698",
"< 	c #A8D494",
"[ 	c #A3D290",
"} 	c #96B4E2",
"| 	c #C1D1F2",
"1 	c #FEFEFE",
"2 	c #90B0E0",
"3 	c #BECEF1",
"4 	c #CAD6F1",
"5 	c #8AADDE",
"6 	c #CCD6F0",
"7 	c #CED9F0",
"8 	c #F6F6F9",
"9 	c #84A9DC",
"0 	c #B6CAEE",
"a 	c #F9F9FB",
"b 	c #CDD8F1",
"c 	c #CED8F1",
"d 	c #CED9F1",
"e 	c #CFD9F1",
"f 	c #D0DAF1",
"g 	c #D2DAF1",
"h 	c #D2D9F0",
"i 	c #D5DCF0",
"j 	c #EFEFF6",
"k 	c #7DA4D9",
"l 	c #B3C7ED",
"m 	c #F8F9FB",
"n 	c #EEEEF6",
"o 	c #78A0D8",
"p 	c #AEC5EB",
"q 	c #F8F8FB",
"r 	c #D3DCF1",
"s 	c #D4DCF1",
"t 	c #D7DEF1",
"u 	c #D0D9F0",
"v 	c #ECECF5",
"w 	c #77A0D6",
"x 	c #A9C1EA",
"y 	c #F7F7FB",
"z 	c #DADFF2",
"A 	c #D9DFF1",
"B 	c #F9F9FC",
"C 	c #84A7D9",
"D 	c #A6BFE9",
"E 	c #D9DFF2",
"F 	c #DBE0F2",
"G 	c #D5DDF1",
"H 	c #80A4D8",
"I 	c #A1BCE6",
"J 	c #DCE1F2",
"K 	c #DCE2F2",
"L 	c #84A6D8",
"M 	c #9CB9E4",
"N 	c #F6F6FA",
"O 	c #F5F5F9",
"P 	c #F3F3F9",
"Q 	c #F1F1F8",
"R 	c #EFEFF7",
"S 	c #EEEDF6",
"T 	c #82A4D7",
"U 	c #99B7E4",
"V 	c #95B2E2",
"W 	c #8EAFE0",
"X 	c #89ACDE",
"Y 	c #83A8DC",
"Z 	c #7FA4DA",
"` 	c #79A1D9",
" .	c #749ED6",
"..	c #6091CF",
"                                ",
"    . + @ # $ % & * = - ; > ,   ",
"  . ' ' ' ' ' ' ' ' ' ' ' ' )   ",
"  ! ' ~ { ] ^ / ( _ : < [ ' }   ",
"  | ' 1 1 1 1 1 1 1 1 1 1 ' 2   ",
"  3 ' 4 4 4 4 4 4 4 4 4 4 ' 5   ",
"  % ' 4 1 6 1 1 1 7 1 1 1 8 9   ",
"  0 a b c d e f g 7 g h i j k   ",
"  l m f 1 g 1 1 1 7 1 1 1 n o   ",
"  p q r s s s s t 7 7 h u v w   ",
"  x y t 1 z 1 1 1 A B 1 1 v C   ",
"  D y E z z z z F G G G G v H   ",
"  I y J 1 K 1 1 1 e 1 1 1 v L   ",
"  M N O P Q R S v v v v v v T   ",
"  U V W X Y Z `  . . . . . ...  ",
"                                "};
