/* XPM */
static const char * topology_xpm[] = {
"16 16 120 2",
"  	c None",
". 	c #4589C0",
"+ 	c #659556",
"@ 	c #4F91C0",
"# 	c #6A9959",
"$ 	c #4D98BC",
"% 	c #6D9C5C",
"& 	c #6B9D59",
"* 	c #6C9E5A",
"= 	c #6C9E5B",
"- 	c #52A564",
"; 	c #6C9F5A",
"> 	c #56A18A",
", 	c #6D9F5B",
"' 	c #6EA05C",
") 	c #50A1D3",
"! 	c #66A383",
"~ 	c #949494",
"{ 	c #959595",
"] 	c #67A5A2",
"^ 	c #58A5D5",
"/ 	c #59A6CD",
"( 	c #999999",
"_ 	c #7FA76A",
": 	c #56A9E1",
"< 	c #57ABDB",
"[ 	c #7CAB74",
"} 	c #80AB72",
"| 	c #80AC6C",
"1 	c #81AB73",
"2 	c #81AC72",
"3 	c #81AC73",
"4 	c #82AC73",
"5 	c #63AEC8",
"6 	c #84AD78",
"7 	c #68ACD9",
"8 	c #85AE77",
"9 	c #85AE79",
"0 	c #55B99C",
"a 	c #86AF78",
"b 	c #6EAECE",
"c 	c #6AB5AA",
"d 	c #88B27C",
"e 	c #82B384",
"f 	c #5BC361",
"g 	c #6AB4CC",
"h 	c #8AB96D",
"i 	c #67BCB7",
"j 	c #8DB878",
"k 	c #8BB5A6",
"l 	c #70BCC0",
"m 	c #8DB6BB",
"n 	c #96BA7B",
"o 	c #92BA91",
"p 	c #7CC574",
"q 	c #45DA5F",
"r 	c #7AC0D6",
"s 	c #9AC37F",
"t 	c #9BC385",
"u 	c #9FC288",
"v 	c #77C8C5",
"w 	c #84C3DA",
"x 	c #6CCFAC",
"y 	c #82C6CA",
"z 	c #8CC3D1",
"A 	c #5BDB7D",
"B 	c #A3C491",
"C 	c #8ECAAF",
"D 	c #71D693",
"E 	c #A8C59F",
"F 	c #A9C59F",
"G 	c #A9C88F",
"H 	c #A2CA9A",
"I 	c #ABC7A1",
"J 	c #ABC8A1",
"K 	c #ABC8A2",
"L 	c #79D995",
"M 	c #9FCBBA",
"N 	c #83D5B0",
"O 	c #A1D18D",
"P 	c #A3D794",
"Q 	c #91DF8B",
"R 	c #9AD5D8",
"S 	c #9FDB8F",
"T 	c #C2D4BB",
"U 	c #8CE7A1",
"V 	c #A3DBDB",
"W 	c #BCDAB9",
"X 	c #B5DCD4",
"Y 	c #C7D9C1",
"Z 	c #C2E2AE",
"` 	c #CCEECD",
" .	c #BEE4D4",
"..	c #CCEECF",
"+.	c #ABF1BB",
"@.	c #BAECC9",
"#.	c #BDEAD5",
"$.	c #CCEED4",
"%.	c #CCEED6",
"&.	c #CCEEE6",
"*.	c #CCEEE7",
"=.	c #CFF2CD",
"-.	c #CCEEE9",
";.	c #CCEEEA",
">.	c #CCEEEB",
",.	c #CCEEEC",
"'.	c #CCEEED",
").	c #CCEEEF",
"!.	c #CCEEF0",
"~.	c #CCEEF1",
"{.	c #CCEEF2",
"].	c #CCEEF3",
"^.	c #CCEEF4",
"/.	c #CCEEF5",
"(.	c #CCEEF6",
"_.	c #CCEEF8",
":.	c #CCEEF9",
"<.	c #CCEEFA",
"[.	c #CCEEFB",
"}.	c #CCEEFC",
"                                ",
"      _.[.}.}.}.}.}.}._.~       ",
"      [.^./././.~.).-.}.*.{     ",
"      J 2 , 3 F ..!.;.}.(.^.(   ",
"    # B W X M e a T >.}.}.}.}.  ",
"  ' Z =. .V w z H 8 ` ,.;.&.}.  ",
"* t +.@.R r i D Q | E {.).'.}.  ",
", P U #.g v A q f u 1 (.].{.}.  ",
", S L y / l x 0 - G = :.(.(.}.  ",
"; O N 5 < ) . @ ! n 4 :.:._.}.  ",
"* j p c ^ : $ > d % I <._._.}.  ",
"  & s C b 7 ] h _ 6 $.<.<.<.}.  ",
"    + [ k m o * 9 Y [.[.[.[.}.  ",
"      I } = 3 K %.}.}.}.}.}.}.  ",
"      :.}.}.}.}.}.}.}.}.}.}.:.  ",
"                                "};
