/* XPM */
static const char * view_xpm[] = {
"16 16 132 2",
"  	c None",
". 	c #B9B9B9",
"+ 	c #B7B7B7",
"@ 	c #B5B5B5",
"# 	c #B2B2B2",
"$ 	c #B0B0B0",
"% 	c #BABABA",
"& 	c #D6D6D6",
"* 	c #EDEDED",
"= 	c #F9F9F9",
"- 	c #FBFBFB",
"; 	c #F0F0F0",
"> 	c #D9D9D9",
", 	c #ABABAB",
"' 	c #B8B8B8",
") 	c #F6F6F6",
"! 	c #F4F4F4",
"~ 	c #A8A8A8",
"{ 	c #93B7E7",
"] 	c #90B5E6",
"^ 	c #8CB2E4",
"/ 	c #88AFE2",
"( 	c #84ACE0",
"_ 	c #80A9DD",
": 	c #7DA5DC",
"< 	c #7AA3DA",
"[ 	c #B6B6B6",
"} 	c #F2F2F2",
"| 	c #E4E4E4",
"1 	c #E2E2E2",
"2 	c #C8C8C8",
"3 	c #F1F1F1",
"4 	c #A5A5A5",
"5 	c #F4F7FB",
"6 	c #74A0D7",
"7 	c #B4B4B4",
"8 	c #F8F8F8",
"9 	c #DBDBDB",
"0 	c #EFEFEF",
"a 	c #D0D0D0",
"b 	c #FFFFFF",
"c 	c #A2A2A2",
"d 	c #93CB8B",
"e 	c #8EC987",
"f 	c #89C682",
"g 	c #84C37E",
"h 	c #80C17A",
"i 	c #7CBE76",
"j 	c #6F9BD4",
"k 	c #B1B1B1",
"l 	c #D5D5D5",
"m 	c #CBCBCB",
"n 	c #9E9E9E",
"o 	c #6A97D1",
"p 	c #AEAEAE",
"q 	c #D1D1D1",
"r 	c #ECECEC",
"s 	c #C5C5C5",
"t 	c #C6C6C6",
"u 	c #9A9A9A",
"v 	c #A6C3E9",
"w 	c #6493CE",
"x 	c #ACACAC",
"y 	c #FAFAFA",
"z 	c #D7D7D7",
"A 	c #CACACA",
"B 	c #CFCFCF",
"C 	c #939393",
"D 	c #ACC7E8",
"E 	c #EBF1F7",
"F 	c #5F8FCB",
"G 	c #A9A9A9",
"H 	c #EAEAEA",
"I 	c #91959A",
"J 	c #AEC9E9",
"K 	c #B0C9E9",
"L 	c #B0C8E8",
"M 	c #B5CCE8",
"N 	c #DEE7F2",
"O 	c #598AC8",
"P 	c #9CA4AF",
"Q 	c #AAABAB",
"R 	c #9CA0A4",
"S 	c #A7A7A7",
"T 	c #9CA7B6",
"U 	c #F3F3F3",
"V 	c #DBE5F1",
"W 	c #5586C6",
"X 	c #8AACD8",
"Y 	c #DBDEE3",
"Z 	c #A9BBD2",
"` 	c #ADC2DB",
" .	c #B0C7E3",
"..	c #B3CCEA",
"+.	c #B7CEEA",
"@.	c #AEC8E8",
"#.	c #D8E2F0",
"$.	c #5486C4",
"%.	c #82AADF",
"&.	c #EFF3F9",
"*.	c #BBD0EB",
"=.	c #BACFEA",
"-.	c #F2F6FB",
";.	c #5F8DC8",
">.	c #7EA8DD",
",.	c #BAD0EB",
"'.	c #BDD1EB",
").	c #B5CDEA",
"!.	c #5C8AC6",
"~.	c #7AA4D9",
"{.	c #EEF3F9",
"].	c #BED2EB",
"^.	c #BFD3EB",
"/.	c #ADC7EA",
"(.	c #5F8CC6",
"_.	c #75A1D7",
":.	c #EDF2F8",
"<.	c #EAF0F7",
"[.	c #E6EDF6",
"}.	c #E2EAF4",
"|.	c #DEE7F3",
"1.	c #DBE4F1",
"2.	c #5D8AC5",
"3.	c #729ED6",
"4.	c #6E99D3",
"5.	c #6896D1",
"6.	c #6392CE",
"7.	c #5E8ECB",
"8.	c #5B8AC9",
"9.	c #5687C7",
"0.	c #5284C3",
"a.	c #4277BB",
"    . + @ # $                   ",
"% & * = - ; > ,                 ",
"' ) ! = - ) ) ~ { ] ^ / ( _ : < ",
"[ } > | 1 2 3 4 5 5 5 5 5 5 5 6 ",
"7 8 9 0 a a b c d e f g h i 5 j ",
"k 8 l 0 m m b n b b b b b b 5 o ",
"p 8 q r s t b u v v v v v v 5 w ",
"x y z 1 A B b C b b D b b b E F ",
"G m H ; } r A I J K D K L M N O ",
"    P Q R S T U b b D b b b V W ",
"    X Y Z `  .....+.D D L @.#.$.",
"    %.&.+.b *.b b b =.-.b b #.;.",
"    >.&.,.*.*.*.*.'.).).).).#.!.",
"    ~.{.].b ^.b b b /.b b b #.(.",
"    _.:.<.[.}.|.1.#.#.#.#.#.#.2.",
"    3.4.5.6.7.8.9.0.0.0.0.0.0.a."};
