/* XPM */
static const char * virtdbf_xpm[] = {
"16 16 188 2",
"  	c None",
". 	c #4C6D9D",
"+ 	c #4B6D9D",
"@ 	c #4B6C9D",
"# 	c #4A6C9C",
"$ 	c #496B9C",
"% 	c #496A9B",
"& 	c #486A9B",
"* 	c #47699A",
"= 	c #466899",
"- 	c #456798",
"; 	c #436493",
"> 	c #3E5D84",
", 	c #7897BB",
"' 	c #6282AC",
") 	c #6181AC",
"! 	c #6080AB",
"~ 	c #5F7FAB",
"{ 	c #5E7FAA",
"] 	c #5D7EA8",
"^ 	c #5C7CA8",
"/ 	c #436697",
"( 	c #3C5C88",
"_ 	c #7897BA",
": 	c #B9C5D8",
"< 	c #D7DEE8",
"[ 	c #D6DDE7",
"} 	c #D6DCE6",
"| 	c #D4DBE4",
"1 	c #D3DAE3",
"2 	c #D1D8E2",
"3 	c #D0D7E1",
"4 	c #E5E7EB",
"5 	c #EFEFEF",
"6 	c #2A3E57",
"7 	c #4B6C9C",
"8 	c #A5C2D9",
"9 	c #7091B5",
"0 	c #5F80AB",
"a 	c #5E7EA9",
"b 	c #5C7DA8",
"c 	c #5B7CA8",
"d 	c #5A7BA7",
"e 	c #5979A6",
"f 	c #416496",
"g 	c #4A6B9C",
"h 	c #A9C8DD",
"i 	c #95BDD4",
"j 	c #B9D4E6",
"k 	c #B6D1E6",
"l 	c #B5D0E4",
"m 	c #B3CEE3",
"n 	c #B0CBE2",
"o 	c #ADC9E0",
"p 	c #A9C7DF",
"q 	c #A0BFDA",
"r 	c #4A6B9A",
"s 	c #A6C5DB",
"t 	c #76A7C6",
"u 	c #9BBFD9",
"v 	c #93B7D1",
"w 	c #8EB0CB",
"x 	c #8AAECA",
"y 	c #87ABC8",
"z 	c #83ABCB",
"A 	c #87B0D1",
"B 	c #9BBBD8",
"C 	c #486A99",
"D 	c #A4C2D9",
"E 	c #72A4C1",
"F 	c #94B8D2",
"G 	c #E4EDF5",
"H 	c #E2ECF4",
"I 	c #E1ECF4",
"J 	c #E0EBF4",
"K 	c #DFEAF3",
"L 	c #7FA9CB",
"M 	c #96B8D6",
"N 	c #476999",
"O 	c #9FBFD7",
"P 	c #6F9FBD",
"Q 	c #90B5D4",
"R 	c #88ADCB",
"S 	c #81A8C7",
"T 	c #7DA5C6",
"U 	c #7AA1C4",
"V 	c #76A1C5",
"W 	c #7BA7CB",
"X 	c #90B4D4",
"Y 	c #466898",
"Z 	c #9BBBD5",
"` 	c #699AB8",
" .	c #8AB3D4",
"..	c #87AFD2",
"+.	c #82ADD0",
"@.	c #7DAACF",
"#.	c #78A6CD",
"$.	c #74A4CB",
"%.	c #75A4CC",
"&.	c #8AB1D2",
"*.	c #456797",
"=.	c #456799",
"-.	c #96B7D2",
";.	c #6592B4",
">.	c #80A9CB",
",.	c #758DA1",
"'.	c #84878A",
").	c #9E9E9E",
"!.	c #7B8085",
"~.	c #6D93B4",
"{.	c #6D9ABF",
"].	c #7D8387",
"^.	c #7F8082",
"/.	c #446698",
"(.	c #92B4D0",
"_.	c #5F89AC",
":.	c #627788",
"<.	c #919191",
"[.	c #E8E8E8",
"}.	c #DDDDDD",
"|.	c #C1C1C1",
"1.	c #7E848A",
"2.	c #76838D",
"3.	c #D7D8D9",
"4.	c #C4C4C4",
"5.	c #4C4C4C",
"6.	c #436597",
"7.	c #8EB0CE",
"8.	c #4E6B85",
"9.	c #737678",
"0.	c #CED3D3",
"a.	c #5D6C78",
"b.	c #4B4C4C",
"c.	c #656565",
"d.	c #929292",
"e.	c #797979",
"f.	c #4B4B4C",
"g.	c #4B5158",
"h.	c #737373",
"i.	c #88ACCB",
"j.	c #435567",
"k.	c #818384",
"l.	c #6596C1",
"m.	c #414345",
"n.	c #BDBDBD",
"o.	c #CECECE",
"p.	c #C2C2C2",
"q.	c #ADADAD",
"r.	c #3F4143",
"s.	c #2B3F57",
"t.	c #828282",
"u.	c #406396",
"v.	c #85A9CA",
"w.	c #445972",
"x.	c #676A6D",
"y.	c #556471",
"z.	c #414344",
"A.	c #464646",
"B.	c #515151",
"C.	c #414243",
"D.	c #474C53",
"E.	c #676767",
"F.	c #3F6295",
"G.	c #85ABCC",
"H.	c #7A99B6",
"I.	c #565D62",
"J.	c #8C8F91",
"K.	c #A7AAAD",
"L.	c #AEAEAE",
"M.	c #979797",
"N.	c #717171",
"O.	c #787878",
"P.	c #A4A5A6",
"Q.	c #8D8D8D",
"R.	c #4D4D4D",
"S.	c #3E6194",
"T.	c #3D6094",
"U.	c #3C5F92",
"V.	c #3C5982",
"W.	c #484D53",
"X.	c #626466",
"Y.	c #696B6C",
"Z.	c #6A6B6C",
"`.	c #435A7A",
" +	c #3F5980",
".+	c #686A6D",
"++	c #646464",
"@+	c #4A4A4A",
"    . + @ # $ % & * = - ; >     ",
"  . + , ' ) ! ~ { ] ^ . / (     ",
"  + _ : < [ } | 1 2 3 4 5 6     ",
"  7 8 9 0 a a b c d e $ f 6     ",
"  g h i j k l m n o p q r 6     ",
"  % s t u v w x y z A B C 6     ",
"  & D E F G H I J K L M N 6     ",
"  * O P Q R S T U V W X Y 6     ",
"  = Z `  ...+.@.#.$.%.&.*.6     ",
"  =.-.;.>.,.'.).!.~.{.].).^.    ",
"  /.(._.:.<.[.}.|.1.2.3.}.4.<.5.",
"  6.7.8.9.0.a.b.c.d.e.c.f.g.4.h.",
"  f i.j.k.0.l.m.n.o.p.q.r.s.4.t.",
"  u.v.w.x.0.y.z.A.B.B.A.C.D.4.E.",
"  F.G.H.I.J.K.L.M.N.O.M.L.P.Q.R.",
"  S.T.U.V.W.X.Y.Z.`. +.+Z.++@+  "};
