/* XPM */
static const char * virttxt_xpm[] = {
"16 16 180 2",
"  	c None",
". 	c #4D8BC8",
"+ 	c #4F8CC8",
"@ 	c #4F8DC8",
"# 	c #4F8CC9",
"$ 	c #4F8BC7",
"% 	c #4B89C5",
"& 	c #3B76C4",
"* 	c #4985C4",
"= 	c #ECF2F7",
"- 	c #EEF4F8",
"; 	c #EDF4F8",
"> 	c #EDF3F8",
", 	c #ECF2F8",
"' 	c #D7E6F2",
") 	c #7DB2E2",
"! 	c #6594DB",
"~ 	c #4B88C5",
"{ 	c #F2F6FA",
"] 	c #C7E0FA",
"^ 	c #C9E1FB",
"/ 	c #C9E2FB",
"( 	c #C8E0FB",
"_ 	c #C5DFF9",
": 	c #C1DBF8",
"< 	c #B8D6F4",
"[ 	c #F8FBFF",
"} 	c #B4D8F6",
"| 	c #7DB0E1",
"1 	c #6492DB",
"2 	c #4C89C6",
"3 	c #F1F5F9",
"4 	c #CDE3FC",
"5 	c #CEE3FB",
"6 	c #CDE3FB",
"7 	c #CBE2FB",
"8 	c #C8E0F9",
"9 	c #C2DCF8",
"0 	c #BAD6F5",
"a 	c #F8FBFD",
"b 	c #CDE6FC",
"c 	c #C9E5FA",
"d 	c #84B6E2",
"e 	c #4279BF",
"f 	c #4B89C6",
"g 	c #CFE3FC",
"h 	c #D0E4FB",
"i 	c #CFE4FC",
"j 	c #CAE1FA",
"k 	c #C4DDF9",
"l 	c #BCD9F6",
"m 	c #DFE9F4",
"n 	c #F3F7FB",
"o 	c #E9EFF5",
"p 	c #457EC2",
"q 	c #F0F4F9",
"r 	c #D3E6FC",
"s 	c #D4E6FC",
"t 	c #D3E7FD",
"u 	c #D1E4FC",
"v 	c #C8E0FA",
"w 	c #BBD6F5",
"x 	c #B5D4F3",
"y 	c #B3D2F1",
"z 	c #F0F4F8",
"A 	c #4682C4",
"B 	c #4A88C6",
"C 	c #EFF4F9",
"D 	c #D7E7FE",
"E 	c #D6E7FD",
"F 	c #D5E7FD",
"G 	c #D4E6FD",
"H 	c #D2E6FC",
"I 	c #CCE1FB",
"J 	c #C7DFFA",
"K 	c #BDDAF6",
"L 	c #BBD8F6",
"M 	c #EFF4FA",
"N 	c #4683C6",
"O 	c #4988C6",
"P 	c #EDF4F9",
"Q 	c #D8E8FE",
"R 	c #D7E8FE",
"S 	c #D6E7FE",
"T 	c #D3E5FD",
"U 	c #C3DDF9",
"V 	c #EDF4FA",
"W 	c #4582C6",
"X 	c #4784C6",
"Y 	c #ECF3F9",
"Z 	c #D6E8FE",
"` 	c #CCE3FB",
" .	c #C6DFFA",
"..	c #EAF2FA",
"+.	c #4280C6",
"@.	c #4582C5",
"#.	c #EBF2F8",
"$.	c #CFE0F5",
"%.	c #A4AEBA",
"&.	c #8A8C8D",
"*.	c #9E9E9E",
"=.	c #86888B",
"-.	c #BBCADD",
";.	c #C4D7EE",
">.	c #87898D",
",.	c #8C8D8D",
"'.	c #53749B",
").	c #4280C5",
"!.	c #E8F1F8",
"~.	c #D1E1F9",
"{.	c #8A929D",
"].	c #919191",
"^.	c #E8E8E8",
"/.	c #DDDDDD",
"(.	c #C1C1C1",
"_.	c #8B8E91",
":.	c #8E949A",
"<.	c #D9D9DA",
"[.	c #C4C4C4",
"}.	c #4C4C4C",
"|.	c #407CC4",
"1.	c #E6F0F7",
"2.	c #4A8CBB",
"3.	c #71777B",
"4.	c #CED3D3",
"5.	c #577286",
"6.	c #4B4C4D",
"7.	c #656565",
"8.	c #929292",
"9.	c #797979",
"0.	c #858687",
"a.	c #737373",
"b.	c #3C78C1",
"c.	c #E3EDF7",
"d.	c #4E748F",
"e.	c #838586",
"f.	c #98D1F8",
"g.	c #434648",
"h.	c #BDBDBD",
"i.	c #CECECE",
"j.	c #C2C2C2",
"k.	c #ADADAD",
"l.	c #414548",
"m.	c #EEF0F4",
"n.	c #828282",
"o.	c #3871BF",
"p.	c #DFEBF5",
"q.	c #5083A7",
"r.	c #676C70",
"s.	c #577081",
"t.	c #424345",
"u.	c #464646",
"v.	c #515151",
"w.	c #7F8080",
"x.	c #676767",
"y.	c #3369BC",
"z.	c #EAF1F8",
"A.	c #C2CDD6",
"B.	c #646668",
"C.	c #929394",
"D.	c #AEAFAF",
"E.	c #AEAEAE",
"F.	c #979797",
"G.	c #717171",
"H.	c #787878",
"I.	c #B0B0B0",
"J.	c #888B8F",
"K.	c #4D4D4D",
"L.	c #3065BA",
"M.	c #3165B9",
"N.	c #335FA2",
"O.	c #474D58",
"P.	c #626468",
"Q.	c #696B6D",
"R.	c #6A6B6D",
"S.	c #3D6094",
"T.	c #39619E",
"U.	c #686B6F",
"V.	c #626467",
"W.	c #494B50",
"    . + + + + @ # $ % &         ",
"  * = - ; > > > , = ' ) !       ",
"  ~ { ] ^ / ( _ : < [ } | 1     ",
"  2 3 4 5 6 7 8 9 0 a b c d e   ",
"  f 3 g h i 4 j k l m = n o p   ",
"  f q r s t u 6 v 9 w x y z A   ",
"  B C D E F G H I J 9 K L M N   ",
"  O P Q Q R S T u I ] U 9 V W   ",
"  X Y Z R E E F T h ` J  ...+.  ",
"  @.#.S $.%.&.*.=.-.;.>.*.,.'.  ",
"  ).!.~.{.].^./.(._.:.<./.[.].}.",
"  |.1.2.3.4.5.6.7.8.9.7.6.0.[.a.",
"  b.c.d.e.4.f.g.h.i.j.k.l.m.[.n.",
"  o.p.q.r.4.s.t.u.v.v.u.t.w.[.x.",
"  y.z.A.B.C.D.E.F.G.H.F.E.I.J.K.",
"    L.M.N.O.P.Q.R.S.T.U.Q.V.W.  "};
