/* XPM */
static const char * virtxl_xpm[] = {
"16 16 183 2",
"  	c None",
". 	c #4D8BC8",
"+ 	c #4F8CC8",
"@ 	c #4F8DC8",
"# 	c #4F8CC9",
"$ 	c #4F8BC7",
"% 	c #4B89C5",
"& 	c #3B76C4",
"* 	c #4985C4",
"= 	c #ECF2F7",
"- 	c #EEF4F8",
"; 	c #EDF4F8",
"> 	c #EDF3F8",
", 	c #ECF2F8",
"' 	c #D7E6F2",
") 	c #7DB2E2",
"! 	c #6594DB",
"~ 	c #4B88C5",
"{ 	c #F2F6FA",
"] 	c #C7E0FA",
"^ 	c #C9E1FB",
"/ 	c #C9E2FB",
"( 	c #C8E0FB",
"_ 	c #C5DFF9",
": 	c #C1DBF8",
"< 	c #B8D6F4",
"[ 	c #F8FBFF",
"} 	c #B4D8F6",
"| 	c #7DB0E1",
"1 	c #6492DB",
"2 	c #4C89C6",
"3 	c #F1F5F9",
"4 	c #CDE3FC",
"5 	c #CEE3FB",
"6 	c #CDE3FB",
"7 	c #CBE2FB",
"8 	c #C8E0F9",
"9 	c #C2DCF8",
"0 	c #BAD6F5",
"a 	c #F8FBFD",
"b 	c #CDE6FC",
"c 	c #C9E5FA",
"d 	c #84B6E2",
"e 	c #4279BF",
"f 	c #588D43",
"g 	c #568C55",
"h 	c #669653",
"i 	c #639554",
"j 	c #95B9A1",
"k 	c #83AE8D",
"l 	c #427F2E",
"m 	c #417F2E",
"n 	c #48843A",
"o 	c #458236",
"p 	c #90B490",
"q 	c #F3F7FB",
"r 	c #E9EFF5",
"s 	c #457EC2",
"t 	c #BED3B5",
"u 	c #B5DA9C",
"v 	c #95C874",
"w 	c #5F934A",
"x 	c #74A45D",
"y 	c #6EA159",
"z 	c #649750",
"A 	c #629762",
"B 	c #B4D1E9",
"C 	c #B5D4F3",
"D 	c #B3D2F1",
"E 	c #F0F4F8",
"F 	c #4682C4",
"G 	c #538B6F",
"H 	c #C8D9C0",
"I 	c #A3D382",
"J 	c #8AC16D",
"K 	c #60964B",
"L 	c #649751",
"M 	c #689A67",
"N 	c #C3DCF4",
"O 	c #BDDAF6",
"P 	c #BBD8F6",
"Q 	c #EFF4FA",
"R 	c #4683C6",
"S 	c #4988C2",
"T 	c #719E61",
"U 	c #CCDCC5",
"V 	c #97C976",
"W 	c #87BC73",
"X 	c #609355",
"Y 	c #CCE0F5",
"Z 	c #CCE1FB",
"` 	c #C3DDF9",
" .	c #EDF4FA",
"..	c #4582C6",
"+.	c #3F7E7F",
"@.	c #D6E7FE",
"#.	c #CFE0F5",
"$.	c #A4AEBA",
"%.	c #8A8C8D",
"&.	c #9E9E9E",
"*.	c #86888B",
"=.	c #BBCADD",
"-.	c #C4D7EE",
";.	c #87898D",
">.	c #8C8D8D",
",.	c #55759C",
"'.	c #4280C6",
").	c #33751B",
"!.	c #D1E1F9",
"~.	c #8A929D",
"{.	c #919191",
"].	c #E8E8E8",
"^.	c #DDDDDD",
"/.	c #C1C1C1",
"(.	c #8B8E91",
"_.	c #8E949A",
":.	c #D9D9DA",
"<.	c #C4C4C4",
"[.	c #3F7CC5",
"}.	c #33751A",
"|.	c #4A8CBB",
"1.	c #71777B",
"2.	c #CED3D3",
"3.	c #577286",
"4.	c #4B4C4D",
"5.	c #656565",
"6.	c #929292",
"7.	c #797979",
"8.	c #858687",
"9.	c #3B76C1",
"0.	c #407CC4",
"a.	c #4E748F",
"b.	c #838586",
"c.	c #98D1F8",
"d.	c #434648",
"e.	c #BDBDBD",
"f.	c #CECECE",
"g.	c #C2C2C2",
"h.	c #ADADAD",
"i.	c #414548",
"j.	c #EEF0F4",
"k.	c #366FBF",
"l.	c #3C78C1",
"m.	c #5083A7",
"n.	c #676C70",
"o.	c #577081",
"p.	c #424345",
"q.	c #464646",
"r.	c #515151",
"s.	c #7F8080",
"t.	c #3167BB",
"u.	c #3871BF",
"v.	c #C2CDD6",
"w.	c #646668",
"x.	c #929394",
"y.	c #AEAFAF",
"z.	c #AEAEAE",
"A.	c #979797",
"B.	c #717171",
"C.	c #787878",
"D.	c #B0B0B0",
"E.	c #898C90",
"F.	c #2D64B9",
"G.	c #3369BC",
"H.	c #3D6EBD",
"I.	c #3762A4",
"J.	c #474D58",
"K.	c #626468",
"L.	c #696B6D",
"M.	c #6A6B6D",
"N.	c #406296",
"O.	c #3D64A0",
"P.	c #686B6F",
"Q.	c #636568",
"R.	c #56585D",
"S.	c #2A60B7",
"T.	c #3065BA",
"U.	c #3166BB",
"V.	c #3066BA",
"W.	c #2F65BA",
"X.	c #2E65B9",
"Y.	c #2E64B9",
"Z.	c #2C62B7",
"    . + + + + @ # $ % &         ",
"  * = - ; > > > , = ' ) !       ",
"  ~ { ] ^ / ( _ : < [ } | 1     ",
"  2 3 4 5 6 7 8 9 0 a b c d e   ",
"f g h i j k l m n o p = q r s   ",
"f t u v i w x y z A B C D E F   ",
"  G H I J i K L M N 9 O P Q R   ",
"  S T U V W f X Y Z ] ` 9  ...  ",
"  +.@.#.$.%.&.*.=.-.;.&.>.,.'.  ",
"  ).!.~.{.].^./.(._.:.^.<.{.[.  ",
"}.}.|.1.2.3.4.5.6.7.5.4.8.<.9.  ",
"  0.a.b.2.c.d.e.f.g.h.i.j.<.k.  ",
"  l.m.n.2.o.p.q.r.r.q.p.s.<.t.  ",
"  u.v.w.x.y.z.A.B.C.A.z.D.E.F.  ",
"  G.H.I.J.K.L.M.N.O.P.L.Q.R.S.  ",
"    T.U.V.V.V.T.W.X.X.Y.Y.Z.    "};
