/* XPM */
static const char * vtable_xpm[] = {
"16 16 132 2",
"  	c None",
". 	c #A2C1EF",
"+ 	c #9FC0ED",
"@ 	c #9DBEEB",
"# 	c #9ABCEB",
"$ 	c #96BAE9",
"% 	c #93B7E7",
"& 	c #90B5E6",
"* 	c #8CB2E4",
"= 	c #88AFE2",
"- 	c #84ACE0",
"; 	c #80A9DD",
"> 	c #7DA5DC",
", 	c #7AA3DA",
"' 	c #A1C1EE",
") 	c #F4F7FB",
"! 	c #74A0D7",
"~ 	c #9EBFEC",
"{ 	c #A5D59C",
"] 	c #A1D398",
"^ 	c #9DD094",
"/ 	c #98CE90",
"( 	c #93CB8B",
"_ 	c #8EC987",
": 	c #89C682",
"< 	c #84C37E",
"[ 	c #80C17A",
"} 	c #7CBE76",
"| 	c #6F9BD4",
"1 	c #9BBDEB",
"2 	c #FFFFFF",
"3 	c #6A97D1",
"4 	c #98BAE9",
"5 	c #A6C3E9",
"6 	c #6493CE",
"7 	c #94B7E7",
"8 	c #A9C4E8",
"9 	c #ACC7E8",
"0 	c #EBF1F7",
"a 	c #5F8FCB",
"b 	c #8FB4E5",
"c 	c #F2F6FA",
"d 	c #AAC6E9",
"e 	c #ACC6E9",
"f 	c #ACC7EA",
"g 	c #ADC7E9",
"h 	c #AEC9E9",
"i 	c #B0C9E9",
"j 	c #B0C8E8",
"k 	c #B5CCE8",
"l 	c #DEE7F2",
"m 	c #598AC8",
"n 	c #8CB1E3",
"o 	c #F1F6FA",
"p 	c #AEC9EA",
"q 	c #B0C9EA",
"r 	c #DBE5F1",
"s 	c #5586C6",
"t 	c #87AEE1",
"u 	c #F0F4FA",
"v 	c #B2CBEA",
"w 	c #AEC6E3",
"x 	c #929FAF",
"y 	c #888A8C",
"z 	c #9E9E9E",
"A 	c #838689",
"B 	c #9EB3CD",
"C 	c #A6BEDC",
"D 	c #83868A",
"E 	c #8B8B8C",
"F 	c #5E799B",
"G 	c #82AADF",
"H 	c #EFF3F9",
"I 	c #B4CAE6",
"J 	c #919191",
"K 	c #E8E8E8",
"L 	c #DDDDDD",
"M 	c #C1C1C1",
"N 	c #888B8F",
"O 	c #97989A",
"P 	c #DADADA",
"Q 	c #C4C4C4",
"R 	c #4C4C4C",
"S 	c #7EA8DD",
"T 	c #909FB2",
"U 	c #77787A",
"V 	c #CED3D3",
"W 	c #747A82",
"X 	c #4C4D4D",
"Y 	c #656565",
"Z 	c #929292",
"` 	c #797979",
" .	c #7D8084",
"..	c #737373",
"+.	c #7AA4D9",
"@.	c #EEF3F9",
"#.	c #727B87",
"$.	c #868686",
"%.	c #F8F8F8",
"&.	c #484848",
"*.	c #BDBDBD",
"=.	c #CECECE",
"-.	c #C2C2C2",
";.	c #ADADAD",
">.	c #D3DCEA",
",.	c #828282",
"'.	c #75A1D7",
").	c #EDF2F8",
"!.	c #9CA0A4",
"~.	c #6F6F70",
"{.	c #787B7E",
"].	c #444444",
"^.	c #464646",
"/.	c #515151",
"(.	c #777A7D",
"_.	c #676767",
":.	c #729ED6",
"<.	c #6E99D3",
"[.	c #5E84B6",
"}.	c #505861",
"|.	c #8A8D91",
"1.	c #A4A8AC",
"2.	c #AEAEAE",
"3.	c #979797",
"4.	c #717171",
"5.	c #787878",
"6.	c #A4A7AC",
"7.	c #8A8C8F",
"8.	c #4D4D4D",
"9.	c #4A4A4A",
"0.	c #646464",
"a.	c #6B6B6B",
"                                ",
"    . + @ # $ % & * = - ; > ,   ",
"  ' ) ) ) ) ) ) ) ) ) ) ) ) !   ",
"  ~ ) { ] ^ / ( _ : < [ } ) |   ",
"  1 ) 2 2 2 2 2 2 2 2 2 2 ) 3   ",
"  4 ) 5 5 5 5 5 5 5 5 5 5 ) 6   ",
"  7 ) 5 2 8 2 2 2 9 2 2 2 0 a   ",
"  b c d e f g h i 9 i j k l m   ",
"  n o p 2 q 2 2 2 9 2 2 2 r s   ",
"  t u v w x y z A B C D z E F   ",
"  G H I z J K L M N O P L Q J R ",
"  S H T U V W X Y Z ` Y X  .Q ..",
"  +.@.#.$.V %.&.*.=.-.;.&.>.Q ,.",
"  '.).!.~.V {.].^././.^.].(.Q _.",
"  :.<.[.}.|.1.2.3.4.5.3.2.6.7.8.",
"          9.0.a.a.    a.a.0.9.  "};
