/* XPM */
static const char * wfs_xpm[] = {
"16 16 93 2",
"  	c None",
". 	c #A5C4EC",
"+ 	c #A2C3EC",
"@ 	c #9FBFEB",
"# 	c #9ABEEB",
"$ 	c #97BBE9",
"% 	c #91B6E8",
"& 	c #B1CDEF",
"* 	c #B8D0F1",
"= 	c #BBD3F1",
"- 	c #B9D0F0",
"; 	c #AECBED",
"> 	c #A0C0EB",
", 	c #83AEE5",
"' 	c #A4C4EC",
") 	c #AECAEE",
"! 	c #B4CDF0",
"~ 	c #A2C2EB",
"{ 	c #95BAE8",
"] 	c #8BB3E6",
"^ 	c #86AFE5",
"/ 	c #8BB3E7",
"( 	c #99BBEA",
"_ 	c #88B1E6",
": 	c #6D9FE0",
"< 	c #AEC9EE",
"[ 	c #ADCAEF",
"} 	c #70A1E0",
"| 	c #86B0E5",
"1 	c #7AA8E2",
"2 	c #5C96DD",
"3 	c #9CBEEB",
"4 	c #B0CCEE",
"5 	c #94B8E8",
"6 	c #7EAAE5",
"7 	c #78A7E3",
"8 	c #72A2E2",
"9 	c #5F97DD",
"0 	c #80ACE5",
"a 	c #538FDB",
"b 	c #99BCE9",
"c 	c #A9C7EC",
"d 	c #9BBDEA",
"e 	c #80ABE5",
"f 	c #8FB5E8",
"g 	c #7FABE4",
"h 	c #7AA7E3",
"i 	c #80ACE4",
"j 	c #6397DD",
"k 	c #6EA0E0",
"l 	c #4786D8",
"m 	c #AECBEE",
"n 	c #89B1E5",
"o 	c #7BA8E3",
"p 	c #8EB5E7",
"q 	c #76A5E2",
"r 	c #538EDA",
"s 	c #4889D9",
"t 	c #7AA7E2",
"u 	c #3F82D5",
"v 	c #89B2E6",
"w 	c #ADCAEE",
"x 	c #77A7E3",
"y 	c #5D95DD",
"z 	c #4A89D8",
"A 	c #4082D5",
"B 	c #7DAAE3",
"C 	c #397DD5",
"D 	c #A7C5ED",
"E 	c #75A4E2",
"F 	c #689DDF",
"G 	c #BFBFBF",
"H 	c #B6B6B6",
"I 	c #4384D7",
"J 	c #3C7FD5",
"K 	c #387BD5",
"L 	c #75A5E2",
"M 	c #84AEE4",
"N 	c #6A9DDE",
"O 	c #D8D9DA",
"P 	c #D8D9DB",
"Q 	c #A3A3A3",
"R 	c #4986D9",
"S 	c #ADADAD",
"T 	c #9A9A9A",
"U 	c #E3E4E7",
"V 	c #E1E2E5",
"W 	c #909090",
"X 	c #868686",
"Y 	c #7D7D7D",
"Z 	c #747474",
"` 	c #6C6C6C",
" .	c #656565",
"          . + @ # $ %           ",
"        + & * = - ; > ,         ",
"    ' ) ! ~ { % ] ^ / ( _ :     ",
"  + < [ $             } | 1 2   ",
"  3 4 5     , 6 7 8     9 0 a   ",
"b c d     e f g h i j     9 k l ",
"% m n   o p }     2 q r   s t u ",
"v w 6   8 x         y z   A B C ",
"e D E   F j   G H   l I   J h K ",
"L M N       G O P Q       K R K ",
"            H S Q T             ",
"          H S U V W X           ",
"          S Q T W X Y           ",
"        S Q T     Y Z `         ",
"        Q           `  .        ",
"      Q                         "};
